<?xml version="1.0" encoding="UTF-8"?>
<!DOCTYPE svg PUBLIC "-//W3C//DTD SVG 1.1//EN" "http://www.w3.org/Graphics/SVG/1.1/DTD/svg11.dtd">
<svg xmlns="http://www.w3.org/2000/svg" version="1.1" width="413px" height="540px" style="shape-rendering:geometricPrecision; text-rendering:geometricPrecision; image-rendering:optimizeQuality; fill-rule:evenodd; clip-rule:evenodd" xmlns:xlink="http://www.w3.org/1999/xlink">
<g><path style="opacity:1" fill="#ddd9d8" d="M 203.5,-0.5 C 272.833,-0.5 342.167,-0.5 411.5,-0.5C 411.5,32.8333 411.5,66.1667 411.5,99.5C 410.178,99.67 409.011,99.3366 408,98.5C 405.232,99.2076 404.399,100.708 405.5,103C 403.579,103.36 401.912,104.194 400.5,105.5C 401.429,107.322 400.762,108.655 398.5,109.5C 399.711,110.72 399.711,111.887 398.5,113C 395.512,114.438 392.512,114.938 389.5,114.5C 388.769,116.401 388.769,118.401 389.5,120.5C 386.167,120.5 382.833,120.5 379.5,120.5C 379.5,123.167 379.5,125.833 379.5,128.5C 376.482,128.335 373.482,128.502 370.5,129C 370.382,132.03 370.215,135.197 370,138.5C 367.683,140.316 365.516,142.316 363.5,144.5C 360.582,145.87 357.582,146.87 354.5,147.5C 354.5,148.5 354.5,149.5 354.5,150.5C 357.779,149.374 361.112,148.541 364.5,148C 362.623,150.126 361.623,152.626 361.5,155.5C 359.533,155.739 357.699,155.406 356,154.5C 354.842,154.998 354.009,155.831 353.5,157C 355.202,161.123 354.535,164.79 351.5,168C 352.819,171.264 353.819,174.597 354.5,178C 351.002,178.208 347.669,179.041 344.5,180.5C 342.287,178.73 339.954,178.397 337.5,179.5C 338.381,180.971 339.714,181.804 341.5,182C 336.389,183.672 336.389,184.838 341.5,185.5C 341.5,187.167 341.5,188.833 341.5,190.5C 340.127,190.343 338.793,190.51 337.5,191C 336.167,192 336.167,193 337.5,194C 326.846,194.192 324.513,198.359 330.5,206.5C 329.663,208.844 328.329,210.844 326.5,212.5C 324.074,213.168 321.741,213.502 319.5,213.5C 318.943,215.718 318.943,218.051 319.5,220.5C 321.5,220.5 323.5,220.5 325.5,220.5C 325.5,223.167 325.5,225.833 325.5,228.5C 324.167,228.5 322.833,228.5 321.5,228.5C 321.5,232.833 321.5,237.167 321.5,241.5C 327.848,241.379 327.848,242.379 321.5,244.5C 320.269,245.651 320.269,246.817 321.5,248C 320.551,248.617 319.718,248.451 319,247.5C 315.604,250.91 316.438,253.077 321.5,254C 320.325,257.178 321.325,259.678 324.5,261.5C 325.318,264.107 325.818,266.774 326,269.5C 327.675,270.595 328.842,272.095 329.5,274C 330.784,274.684 331.951,274.517 333,273.5C 334.312,277.311 336.812,279.977 340.5,281.5C 340.705,285.375 342.705,287.041 346.5,286.5C 346.5,287.833 346.5,289.167 346.5,290.5C 350.5,290.5 354.5,290.5 358.5,290.5C 358.5,291.833 358.5,293.167 358.5,294.5C 362.256,294.533 365.589,295.533 368.5,297.5C 368.5,298.5 368.5,299.5 368.5,300.5C 367.022,300.238 365.689,300.571 364.5,301.5C 365.154,303.115 365.654,304.782 366,306.5C 367.356,307.38 368.856,307.714 370.5,307.5C 370.52,311.513 371.853,312.18 374.5,309.5C 377.281,311.217 379.614,313.384 381.5,316C 380.184,317.978 380.684,319.478 383,320.5C 383.497,323.146 383.664,325.813 383.5,328.5C 385.792,328.756 387.959,328.423 390,327.5C 390.667,315.5 391.333,315.5 392,327.5C 395.002,329.661 397.169,332.494 398.5,336C 400.134,336.494 401.801,336.66 403.5,336.5C 403.334,341.511 403.501,346.511 404,351.5C 406.642,353.059 408.975,352.725 411,350.5C 411.5,375.498 411.667,400.498 411.5,425.5C 410.989,410.973 410.323,400.306 409.5,393.5C 408.5,393.5 407.5,393.5 406.5,393.5C 406.666,386.825 406.5,380.158 406,373.5C 404.933,372.809 403.766,372.309 402.5,372C 404.559,370.815 404.726,369.648 403,368.5C 402,369.167 401,369.833 400,370.5C 397.744,368.915 395.244,368.248 392.5,368.5C 392.5,365.833 392.5,363.167 392.5,360.5C 391.5,360.5 390.5,360.5 389.5,360.5C 388.833,371.167 388.167,371.167 387.5,360.5C 386.167,360.5 384.833,360.5 383.5,360.5C 383.5,355.167 383.5,349.833 383.5,344.5C 381.5,344.5 379.5,344.5 377.5,344.5C 377.771,342.179 377.104,340.179 375.5,338.5C 371.809,336.244 367.809,335.244 363.5,335.5C 363.5,331.5 363.5,327.5 363.5,323.5C 357.833,323.5 352.167,323.5 346.5,323.5C 346.5,322.167 346.5,320.833 346.5,319.5C 341.167,319.5 335.833,319.5 330.5,319.5C 330.664,316.813 330.497,314.146 330,311.5C 327.281,310.556 324.448,310.223 321.5,310.5C 321.5,309.167 321.5,307.833 321.5,306.5C 320.167,306.5 318.833,306.5 317.5,306.5C 317.5,305.167 317.5,303.833 317.5,302.5C 313.5,302.5 309.5,302.5 305.5,302.5C 305.5,299.833 305.5,297.167 305.5,294.5C 299.833,294.5 294.167,294.5 288.5,294.5C 288.5,291.167 288.5,287.833 288.5,284.5C 284.167,284.5 279.833,284.5 275.5,284.5C 275.162,281.989 275.162,279.655 275.5,277.5C 274.833,276.5 274.167,275.5 273.5,274.5C 273.751,270.67 274.751,266.837 276.5,263C 276.161,260.133 275.161,257.633 273.5,255.5C 274.229,240.513 274.896,225.513 275.5,210.5C 275.497,207.645 275.164,204.978 274.5,202.5C 274.795,200.265 274.461,198.265 273.5,196.5C 273.768,194.901 273.434,193.568 272.5,192.5C 272.443,186.149 272.11,179.815 271.5,173.5C 270.523,157.829 269.357,142.162 268,126.5C 266.093,119.485 263.593,112.818 260.5,106.5C 258.022,104.197 255.355,102.031 252.5,100C 241.699,96.1811 232.199,90.3477 224,82.5C 222.589,80.3496 221.755,78.0163 221.5,75.5C 221.5,74.1667 221.5,72.8333 221.5,71.5C 221.077,70.7354 220.743,69.9021 220.5,69C 223.073,64.115 224.74,58.9483 225.5,53.5C 226.309,52.5313 227.309,51.6979 228.5,51C 228.043,50.586 227.709,50.086 227.5,49.5C 230.663,48.6759 232.33,46.6759 232.5,43.5C 233.791,43.7373 234.791,43.404 235.5,42.5C 236.922,42.2504 237.922,41.417 238.5,40C 237.599,37.5291 236.599,35.0291 235.5,32.5C 235.833,31.8333 236.167,31.1667 236.5,30.5C 233.036,29.1889 230.702,26.8556 229.5,23.5C 229.457,18.7559 227.79,14.7559 224.5,11.5C 222.737,7.90116 220.07,5.06783 216.5,3C 213.881,2.84851 211.547,2.01518 209.5,0.5C 208.833,1.16667 208.167,1.83333 207.5,2.5C 206.099,1.47934 204.765,0.479345 203.5,-0.5 Z"/></g>
<g><path style="opacity:1" fill="#554943" d="M 198.5,-0.5 C 200.167,-0.5 201.833,-0.5 203.5,-0.5C 204.765,0.479345 206.099,1.47934 207.5,2.5C 208.167,1.83333 208.833,1.16667 209.5,0.5C 211.547,2.01518 213.881,2.84851 216.5,3C 220.07,5.06783 222.737,7.90116 224.5,11.5C 221.312,8.87752 217.646,7.21085 213.5,6.5C 210.762,5.96478 208.928,6.96478 208,9.5C 207.215,7.71398 206.049,6.21398 204.5,5C 204.833,4.66667 205.167,4.33333 205.5,4C 204.421,3.04396 203.255,2.21063 202,1.5C 196.95,2.12158 192.783,4.28824 189.5,8C 190.449,8.61723 191.282,8.45057 192,7.5C 192.725,9.15746 192.225,10.1575 190.5,10.5C 189.365,9.89728 188.365,9.56395 187.5,9.5C 189.919,4.74562 193.586,1.41229 198.5,-0.5 Z"/></g>
<g><path style="opacity:1" fill="#2c221c" d="M 213.5,6.5 C 214.23,8.04504 215.563,8.87838 217.5,9C 216.207,9.49001 214.873,9.65668 213.5,9.5C 213.5,10.8333 213.5,12.1667 213.5,13.5C 214.959,13.4326 216.292,13.7659 217.5,14.5C 215.317,16.8561 212.65,17.1895 209.5,15.5C 204.965,17.1782 200.298,18.3449 195.5,19C 191.51,20.9904 189.01,24.1571 188,28.5C 187.617,27.944 187.117,27.6107 186.5,27.5C 186.62,24.5198 187.287,21.6865 188.5,19C 188.043,18.586 187.709,18.086 187.5,17.5C 189.082,15.4229 190.082,13.0896 190.5,10.5C 192.225,10.1575 192.725,9.15746 192,7.5C 191.282,8.45057 190.449,8.61723 189.5,8C 192.783,4.28824 196.95,2.12158 202,1.5C 203.255,2.21063 204.421,3.04396 205.5,4C 205.167,4.33333 204.833,4.66667 204.5,5C 206.049,6.21398 207.215,7.71398 208,9.5C 208.928,6.96478 210.762,5.96478 213.5,6.5 Z"/></g>
<g><path style="opacity:1" fill="#786455" d="M 185.5,12.5 C 185.753,14.8273 185.086,16.8273 183.5,18.5C 184.77,22.4842 184.77,26.4842 183.5,30.5C 182.719,29.2713 182.219,27.938 182,26.5C 181.329,27.2524 180.496,27.5858 179.5,27.5C 178.652,21.2449 180.652,16.2449 185.5,12.5 Z"/></g>
<g><path style="opacity:1" fill="#5a4437" d="M 213.5,6.5 C 217.646,7.21085 221.312,8.87752 224.5,11.5C 227.79,14.7559 229.457,18.7559 229.5,23.5C 229.178,25.7224 229.845,27.5557 231.5,29C 230.62,30.3561 230.286,31.8561 230.5,33.5C 227.121,28.4275 223.954,23.0942 221,17.5C 219.961,16.2899 218.794,15.2899 217.5,14.5C 216.292,13.7659 214.959,13.4326 213.5,13.5C 213.5,12.1667 213.5,10.8333 213.5,9.5C 214.873,9.65668 216.207,9.49001 217.5,9C 215.563,8.87838 214.23,8.04504 213.5,6.5 Z"/></g>
<g><path style="opacity:1" fill="#412d21" d="M 217.5,14.5 C 218.794,15.2899 219.961,16.2899 221,17.5C 223.954,23.0942 227.121,28.4275 230.5,33.5C 233.409,35.7586 235.076,38.7586 235.5,42.5C 232.017,42.3094 228.684,41.6427 225.5,40.5C 225.371,38.7839 225.038,37.1172 224.5,35.5C 223.067,33.4418 222.4,31.1085 222.5,28.5C 222.753,26.1727 222.086,24.1727 220.5,22.5C 217.347,19.7567 213.68,18.4233 209.5,18.5C 204.875,19.5835 200.208,20.4168 195.5,21C 191.993,22.3296 190.327,24.8296 190.5,28.5C 189.442,29.6002 188.608,30.9336 188,32.5C 186.731,31.0953 186.231,29.4286 186.5,27.5C 187.117,27.6107 187.617,27.944 188,28.5C 189.01,24.1571 191.51,20.9904 195.5,19C 200.298,18.3449 204.965,17.1782 209.5,15.5C 212.65,17.1895 215.317,16.8561 217.5,14.5 Z"/></g>
<g><path style="opacity:1" fill="#aa816c" d="M 222.5,28.5 C 222.4,31.1085 223.067,33.4418 224.5,35.5C 223.222,35.7822 222.222,36.4489 221.5,37.5C 220.666,36.2521 219.333,35.5854 217.5,35.5C 213.407,35.5967 209.574,36.5967 206,38.5C 203.705,36.3751 201.205,36.0417 198.5,37.5C 194.913,36.4629 194.913,34.9629 198.5,33C 206.423,33.3575 206.423,32.1909 198.5,29.5C 197.754,28.2638 197.421,26.9305 197.5,25.5C 200.55,26.0768 202.55,24.9101 203.5,22C 209.932,19.3963 214.265,21.3963 216.5,28C 218.473,28.4955 220.473,28.6621 222.5,28.5 Z"/></g>
<g><path style="opacity:1" fill="#9a897e" d="M 229.5,23.5 C 230.702,26.8556 233.036,29.1889 236.5,30.5C 236.167,31.1667 235.833,31.8333 235.5,32.5C 236.599,35.0291 237.599,37.5291 238.5,40C 237.922,41.417 236.922,42.2504 235.5,42.5C 235.076,38.7586 233.409,35.7586 230.5,33.5C 230.286,31.8561 230.62,30.3561 231.5,29C 229.845,27.5557 229.178,25.7224 229.5,23.5 Z"/></g>
<g><path style="opacity:1" fill="#976c59" d="M 222.5,28.5 C 220.473,28.6621 218.473,28.4955 216.5,28C 214.265,21.3963 209.932,19.3963 203.5,22C 202.55,24.9101 200.55,26.0768 197.5,25.5C 197.421,26.9305 197.754,28.2638 198.5,29.5C 206.423,32.1909 206.423,33.3575 198.5,33C 194.913,34.9629 194.913,36.4629 198.5,37.5C 201.205,36.0417 203.705,36.3751 206,38.5C 209.574,36.5967 213.407,35.5967 217.5,35.5C 219.333,35.5854 220.666,36.2521 221.5,37.5C 221.167,37.5 220.833,37.5 220.5,37.5C 217.409,36.3792 214.409,36.7125 211.5,38.5C 209.027,38.0882 207.694,39.0882 207.5,41.5C 206.504,41.4142 205.671,41.7476 205,42.5C 203.672,47.3277 200.506,49.661 195.5,49.5C 195.919,46.6755 194.919,44.5088 192.5,43C 193.337,41.9887 193.67,40.8221 193.5,39.5C 196.524,39.9467 196.857,40.78 194.5,42C 195.917,44.8262 197.417,44.9928 199,42.5C 200.049,44.1066 201.549,44.7733 203.5,44.5C 204.138,42.54 204.138,40.7067 203.5,39C 198.943,37.8631 194.443,37.6964 190,38.5C 190.046,35.1996 190.212,31.8663 190.5,28.5C 190.327,24.8296 191.993,22.3296 195.5,21C 200.208,20.4168 204.875,19.5835 209.5,18.5C 213.68,18.4233 217.347,19.7567 220.5,22.5C 222.086,24.1727 222.753,26.1727 222.5,28.5 Z"/></g>
<g><path style="opacity:1" fill="#4b3127" d="M 220.5,37.5 C 219.833,37.8333 219.167,38.1667 218.5,38.5C 215.887,39.0955 215.887,39.9288 218.5,41C 217.135,42.6819 215.635,42.8486 214,41.5C 213.257,43.6447 212.424,43.8114 211.5,42C 211.905,41.0546 212.572,40.3879 213.5,40C 212.584,39.7216 211.918,39.2216 211.5,38.5C 214.409,36.7125 217.409,36.3792 220.5,37.5 Z"/></g>
<g><path style="opacity:1" fill="#523a2e" d="M 187.5,9.5 C 188.365,9.56395 189.365,9.89728 190.5,10.5C 190.082,13.0896 189.082,15.4229 187.5,17.5C 187.709,18.086 188.043,18.586 188.5,19C 187.287,21.6865 186.62,24.5198 186.5,27.5C 186.231,29.4286 186.731,31.0953 188,32.5C 188.608,30.9336 189.442,29.6002 190.5,28.5C 190.212,31.8663 190.046,35.1996 190,38.5C 194.443,37.6964 198.943,37.8631 203.5,39C 204.138,40.7067 204.138,42.54 203.5,44.5C 201.549,44.7733 200.049,44.1066 199,42.5C 197.417,44.9928 195.917,44.8262 194.5,42C 196.857,40.78 196.524,39.9467 193.5,39.5C 190.671,39.3249 189.004,40.6582 188.5,43.5C 187.702,41.9223 187.202,40.2556 187,38.5C 186.005,41.7699 185.172,45.1033 184.5,48.5C 182.783,47.3315 182.116,45.6648 182.5,43.5C 180.833,43.5 179.167,43.5 177.5,43.5C 176.325,43.719 175.325,43.3857 174.5,42.5C 177.589,39.8128 177.923,36.9795 175.5,34C 177.916,32.5747 179.249,30.408 179.5,27.5C 180.496,27.5858 181.329,27.2524 182,26.5C 182.219,27.938 182.719,29.2713 183.5,30.5C 184.77,26.4842 184.77,22.4842 183.5,18.5C 185.086,16.8273 185.753,14.8273 185.5,12.5C 185.427,10.9731 186.094,9.97306 187.5,9.5 Z"/></g>
<g><path style="opacity:1" fill="#7a5245" d="M 211.5,38.5 C 211.918,39.2216 212.584,39.7216 213.5,40C 212.572,40.3879 211.905,41.0546 211.5,42C 212.424,43.8114 213.257,43.6447 214,41.5C 215.635,42.8486 217.135,42.6819 218.5,41C 215.887,39.9288 215.887,39.0955 218.5,38.5C 221.449,41.0934 221.116,43.0934 217.5,44.5C 214.904,45.2653 212.237,45.5987 209.5,45.5C 209.843,43.5168 209.176,42.1834 207.5,41.5C 207.694,39.0882 209.027,38.0882 211.5,38.5 Z"/></g>
<g><path style="opacity:1" fill="#8d6e62" d="M 225.5,40.5 C 228.684,41.6427 232.017,42.3094 235.5,42.5C 234.791,43.404 233.791,43.7373 232.5,43.5C 232.33,46.6759 230.663,48.6759 227.5,49.5C 227.709,50.086 228.043,50.586 228.5,51C 227.309,51.6979 226.309,52.5313 225.5,53.5C 224.897,51.3743 224.897,49.0409 225.5,46.5C 226.573,44.6531 226.573,42.6531 225.5,40.5 Z"/></g>
<g><path style="opacity:1" fill="#c9beb6" d="M 225.5,46.5 C 224.897,49.0409 224.897,51.3743 225.5,53.5C 224.74,58.9483 223.073,64.115 220.5,69C 220.743,69.9021 221.077,70.7354 221.5,71.5C 220.833,71.5 220.5,71.8333 220.5,72.5C 219.504,72.5858 218.671,72.2524 218,71.5C 217.333,68.8333 217.333,66.1667 218,63.5C 219.876,58.2822 221.543,52.9489 223,47.5C 224.044,46.3774 224.71,45.0441 225,43.5C 225.483,44.448 225.649,45.448 225.5,46.5 Z"/></g>
<g><path style="opacity:1" fill="#bda597" d="M 224.5,35.5 C 225.038,37.1172 225.371,38.7839 225.5,40.5C 226.573,42.6531 226.573,44.6531 225.5,46.5C 225.649,45.448 225.483,44.448 225,43.5C 224.71,45.0441 224.044,46.3774 223,47.5C 221.543,52.9489 219.876,58.2822 218,63.5C 217.333,66.1667 217.333,68.8333 218,71.5C 218.671,72.2524 219.504,72.5858 220.5,72.5C 220.167,73.5 219.5,74.1667 218.5,74.5C 216.833,74.5 215.167,74.5 213.5,74.5C 215.787,69.4956 216.953,64.1623 217,58.5C 218.784,54.5997 220.284,50.5997 221.5,46.5C 220.051,45.8281 218.718,45.1614 217.5,44.5C 221.116,43.0934 221.449,41.0934 218.5,38.5C 219.167,38.1667 219.833,37.8333 220.5,37.5C 220.833,37.5 221.167,37.5 221.5,37.5C 222.222,36.4489 223.222,35.7822 224.5,35.5 Z"/></g>
<g><path style="opacity:1" fill="#bba699" d="M 189.5,71.5 C 188.89,70.609 188.557,69.609 188.5,68.5C 189.634,66.0336 189.801,63.367 189,60.5C 187.612,61.5536 186.112,61.7203 184.5,61C 188.711,60.1989 189.378,58.3655 186.5,55.5C 187.497,55.5299 188.164,55.0299 188.5,54C 186.775,51.1143 186.108,47.9477 186.5,44.5C 187.5,44.5 188.5,44.5 189.5,44.5C 189.84,46.9912 190.84,49.1579 192.5,51C 193.256,54.1248 193.589,57.2914 193.5,60.5C 194.5,60.5 195.5,60.5 196.5,60.5C 196.39,64.0002 195.557,67.3335 194,70.5C 192.126,68.1396 190.626,68.473 189.5,71.5 Z"/></g>
<g><path style="opacity:1" fill="#a37f6d" d="M 193.5,39.5 C 193.67,40.8221 193.337,41.9887 192.5,43C 194.919,44.5088 195.919,46.6755 195.5,49.5C 200.506,49.661 203.672,47.3277 205,42.5C 205.671,41.7476 206.504,41.4142 207.5,41.5C 209.176,42.1834 209.843,43.5168 209.5,45.5C 212.237,45.5987 214.904,45.2653 217.5,44.5C 218.718,45.1614 220.051,45.8281 221.5,46.5C 220.284,50.5997 218.784,54.5997 217,58.5C 216.953,64.1623 215.787,69.4956 213.5,74.5C 215.167,74.5 216.833,74.5 218.5,74.5C 217.035,75.7368 215.368,76.7368 213.5,77.5C 212.448,77.6495 211.448,77.4828 210.5,77C 211.051,74.8103 211.051,72.477 210.5,70C 210.284,66.8686 211.617,64.8686 214.5,64C 209.167,63.3333 203.833,63.3333 198.5,64C 199.766,64.3095 200.933,64.8095 202,65.5C 202.306,67.9063 203.139,70.073 204.5,72C 204.257,72.9021 203.923,73.7354 203.5,74.5C 202.626,75.5251 201.459,76.1918 200,76.5C 197.953,75.3906 195.787,74.7239 193.5,74.5C 192.833,74.5 192.167,74.5 191.5,74.5C 190.833,73.5 190.167,72.5 189.5,71.5C 190.626,68.473 192.126,68.1396 194,70.5C 195.557,67.3335 196.39,64.0002 196.5,60.5C 195.5,60.5 194.5,60.5 193.5,60.5C 193.589,57.2914 193.256,54.1248 192.5,51C 190.84,49.1579 189.84,46.9912 189.5,44.5C 188.5,44.5 187.5,44.5 186.5,44.5C 186.108,47.9477 186.775,51.1143 188.5,54C 188.164,55.0299 187.497,55.5299 186.5,55.5C 183.899,52.3957 181.066,49.3957 178,46.5C 177.517,45.552 177.351,44.552 177.5,43.5C 179.167,43.5 180.833,43.5 182.5,43.5C 182.116,45.6648 182.783,47.3315 184.5,48.5C 185.172,45.1033 186.005,41.7699 187,38.5C 187.202,40.2556 187.702,41.9223 188.5,43.5C 189.004,40.6582 190.671,39.3249 193.5,39.5 Z"/></g>
<g><path style="opacity:1" fill="#8c604f" d="M 213.5,77.5 C 212.791,78.404 211.791,78.7373 210.5,78.5C 208.824,77.8166 208.157,76.4832 208.5,74.5C 206.833,74.5 205.167,74.5 203.5,74.5C 203.923,73.7354 204.257,72.9021 204.5,72C 203.139,70.073 202.306,67.9063 202,65.5C 200.933,64.8095 199.766,64.3095 198.5,64C 203.833,63.3333 209.167,63.3333 214.5,64C 211.617,64.8686 210.284,66.8686 210.5,70C 211.051,72.477 211.051,74.8103 210.5,77C 211.448,77.4828 212.448,77.6495 213.5,77.5 Z"/></g>
<g><path style="opacity:1" fill="#e0dcdc" d="M 411.5,-0.5 C 411.833,-0.5 412.167,-0.5 412.5,-0.5C 412.5,179.5 412.5,359.5 412.5,539.5C 412.167,539.5 411.833,539.5 411.5,539.5C 411.5,522.167 411.5,504.833 411.5,487.5C 411.5,466.833 411.5,446.167 411.5,425.5C 411.667,400.498 411.5,375.498 411,350.5C 408.975,352.725 406.642,353.059 404,351.5C 403.501,346.511 403.334,341.511 403.5,336.5C 401.801,336.66 400.134,336.494 398.5,336C 397.169,332.494 395.002,329.661 392,327.5C 391.333,315.5 390.667,315.5 390,327.5C 387.959,328.423 385.792,328.756 383.5,328.5C 383.664,325.813 383.497,323.146 383,320.5C 380.684,319.478 380.184,317.978 381.5,316C 379.614,313.384 377.281,311.217 374.5,309.5C 371.853,312.18 370.52,311.513 370.5,307.5C 368.856,307.714 367.356,307.38 366,306.5C 365.654,304.782 365.154,303.115 364.5,301.5C 365.689,300.571 367.022,300.238 368.5,300.5C 368.5,299.5 368.5,298.5 368.5,297.5C 365.589,295.533 362.256,294.533 358.5,294.5C 358.5,293.167 358.5,291.833 358.5,290.5C 354.5,290.5 350.5,290.5 346.5,290.5C 346.5,289.167 346.5,287.833 346.5,286.5C 342.705,287.041 340.705,285.375 340.5,281.5C 336.812,279.977 334.312,277.311 333,273.5C 331.951,274.517 330.784,274.684 329.5,274C 328.842,272.095 327.675,270.595 326,269.5C 325.818,266.774 325.318,264.107 324.5,261.5C 321.325,259.678 320.325,257.178 321.5,254C 316.438,253.077 315.604,250.91 319,247.5C 319.718,248.451 320.551,248.617 321.5,248C 320.269,246.817 320.269,245.651 321.5,244.5C 327.848,242.379 327.848,241.379 321.5,241.5C 321.5,237.167 321.5,232.833 321.5,228.5C 322.833,228.5 324.167,228.5 325.5,228.5C 325.5,225.833 325.5,223.167 325.5,220.5C 323.5,220.5 321.5,220.5 319.5,220.5C 318.943,218.051 318.943,215.718 319.5,213.5C 321.741,213.502 324.074,213.168 326.5,212.5C 328.329,210.844 329.663,208.844 330.5,206.5C 324.513,198.359 326.846,194.192 337.5,194C 336.167,193 336.167,192 337.5,191C 338.793,190.51 340.127,190.343 341.5,190.5C 341.5,188.833 341.5,187.167 341.5,185.5C 336.389,184.838 336.389,183.672 341.5,182C 339.714,181.804 338.381,180.971 337.5,179.5C 339.954,178.397 342.287,178.73 344.5,180.5C 347.669,179.041 351.002,178.208 354.5,178C 353.819,174.597 352.819,171.264 351.5,168C 354.535,164.79 355.202,161.123 353.5,157C 354.009,155.831 354.842,154.998 356,154.5C 357.699,155.406 359.533,155.739 361.5,155.5C 361.623,152.626 362.623,150.126 364.5,148C 361.112,148.541 357.779,149.374 354.5,150.5C 354.5,149.5 354.5,148.5 354.5,147.5C 357.582,146.87 360.582,145.87 363.5,144.5C 365.516,142.316 367.683,140.316 370,138.5C 370.215,135.197 370.382,132.03 370.5,129C 373.482,128.502 376.482,128.335 379.5,128.5C 379.5,125.833 379.5,123.167 379.5,120.5C 382.833,120.5 386.167,120.5 389.5,120.5C 388.769,118.401 388.769,116.401 389.5,114.5C 392.512,114.938 395.512,114.438 398.5,113C 399.711,111.887 399.711,110.72 398.5,109.5C 400.762,108.655 401.429,107.322 400.5,105.5C 401.912,104.194 403.579,103.36 405.5,103C 404.399,100.708 405.232,99.2076 408,98.5C 409.011,99.3366 410.178,99.67 411.5,99.5C 411.5,66.1667 411.5,32.8333 411.5,-0.5 Z"/></g>
<g><path style="opacity:1" fill="#31303e" d="M 187.5,69.5 C 191.144,78.187 188.144,82.8537 178.5,83.5C 180.771,81.7341 182.937,79.7341 185,77.5C 185.943,74.7493 186.776,72.0826 187.5,69.5 Z"/></g>
<g><path style="opacity:1" fill="#0f0d13" d="M 221.5,71.5 C 221.5,72.8333 221.5,74.1667 221.5,75.5C 220.167,76.8333 218.833,78.1667 217.5,79.5C 216.307,79.9704 215.64,80.9704 215.5,82.5C 215.803,84.1143 216.47,85.4477 217.5,86.5C 217.297,88.0443 216.63,89.3777 215.5,90.5C 216.381,91.9705 217.714,92.8038 219.5,93C 217.52,94.8252 215.187,95.6585 212.5,95.5C 212.137,97.9115 213.137,99.4115 215.5,100C 213.98,101.23 213.147,102.397 213,103.5C 207.789,102.905 202.622,102.072 197.5,101C 194.894,100.55 193.561,99.0495 193.5,96.5C 192.167,96.5 190.833,96.5 189.5,96.5C 189.649,95.448 189.483,94.448 189,93.5C 188.086,94.6537 187.253,94.487 186.5,93C 187.345,91.4419 186.679,90.4419 184.5,90C 185.938,89.7811 187.271,89.2811 188.5,88.5C 188.291,87.914 187.957,87.414 187.5,87C 189.358,84.9759 191.025,82.8092 192.5,80.5C 192.256,78.45 191.923,76.45 191.5,74.5C 192.167,74.5 192.833,74.5 193.5,74.5C 198.451,79.1547 204.118,80.488 210.5,78.5C 211.791,78.7373 212.791,78.404 213.5,77.5C 215.368,76.7368 217.035,75.7368 218.5,74.5C 219.5,74.1667 220.167,73.5 220.5,72.5C 220.5,71.8333 220.833,71.5 221.5,71.5 Z"/></g>
<g><path style="opacity:1" fill="#624538" d="M 193.5,74.5 C 195.787,74.7239 197.953,75.3906 200,76.5C 201.459,76.1918 202.626,75.5251 203.5,74.5C 205.167,74.5 206.833,74.5 208.5,74.5C 208.157,76.4832 208.824,77.8166 210.5,78.5C 204.118,80.488 198.451,79.1547 193.5,74.5 Z"/></g>
<g><path style="opacity:1" fill="#242533" d="M 221.5,75.5 C 221.755,78.0163 222.589,80.3496 224,82.5C 232.199,90.3477 241.699,96.1811 252.5,100C 255.355,102.031 258.022,104.197 260.5,106.5C 262.771,113.676 264.604,121.01 266,128.5C 267.345,143.708 269.178,158.708 271.5,173.5C 272.11,179.815 272.443,186.149 272.5,192.5C 268.843,172.52 266.01,152.187 264,131.5C 263.667,132.167 263.333,132.833 263,133.5C 262.138,131.913 261.471,130.246 261,128.5C 260.675,122.093 259.842,115.76 258.5,109.5C 254.058,105.551 249.225,102.218 244,99.5C 243.692,100.308 243.192,100.975 242.5,101.5C 241.186,100.687 240.019,99.6872 239,98.5C 234.574,99.3305 230.074,99.3305 225.5,98.5C 226.876,95.342 227.542,92.0087 227.5,88.5C 222.262,87.594 218.928,84.594 217.5,79.5C 218.833,78.1667 220.167,76.8333 221.5,75.5 Z"/></g>
<g><path style="opacity:1" fill="#12121c" d="M 188.5,68.5 C 188.557,69.609 188.89,70.609 189.5,71.5C 190.167,72.5 190.833,73.5 191.5,74.5C 191.923,76.45 192.256,78.45 192.5,80.5C 191.025,82.8092 189.358,84.9759 187.5,87C 187.957,87.414 188.291,87.914 188.5,88.5C 187.271,89.2811 185.938,89.7811 184.5,90C 186.679,90.4419 187.345,91.4419 186.5,93C 187.253,94.487 188.086,94.6537 189,93.5C 189.483,94.448 189.649,95.448 189.5,96.5C 190.833,96.5 192.167,96.5 193.5,96.5C 193.561,99.0495 194.894,100.55 197.5,101C 202.622,102.072 207.789,102.905 213,103.5C 213.147,102.397 213.98,101.23 215.5,100C 213.137,99.4115 212.137,97.9115 212.5,95.5C 215.187,95.6585 217.52,94.8252 219.5,93C 217.714,92.8038 216.381,91.9705 215.5,90.5C 216.63,89.3777 217.297,88.0443 217.5,86.5C 220.642,86.7993 222.809,88.4659 224,91.5C 223.389,94.0329 222.889,96.6996 222.5,99.5C 230.166,98.7825 236.166,100.949 240.5,106C 240.167,106.333 239.833,106.667 239.5,107C 241.207,107.195 242.874,107.195 244.5,107C 245.329,108.816 246.163,110.649 247,112.5C 247.741,111.359 248.575,111.359 249.5,112.5C 250.452,114.045 250.785,115.712 250.5,117.5C 248.143,117.337 245.81,117.503 243.5,118C 245.134,118.494 246.801,118.66 248.5,118.5C 248.5,119.5 248.5,120.5 248.5,121.5C 245.214,122.207 241.881,122.54 238.5,122.5C 239.295,126.785 239.628,131.119 239.5,135.5C 237.857,135.48 236.524,136.147 235.5,137.5C 234.625,140.54 233.625,143.54 232.5,146.5C 234.169,161.846 235.669,177.179 237,192.5C 238.936,196.574 240.103,200.907 240.5,205.5C 240.167,206.833 239.833,208.167 239.5,209.5C 237.035,208.412 235.369,206.579 234.5,204C 230.804,202.031 226.804,201.031 222.5,201C 229.134,200.177 229.134,199.677 222.5,199.5C 221.75,194.418 219.917,189.751 217,185.5C 215.594,186.668 214.428,186.335 213.5,184.5C 213.333,187.654 214.666,190.487 217.5,193C 216.577,195.041 216.244,197.208 216.5,199.5C 210.963,200.083 206.297,198.083 202.5,193.5C 202.39,191.902 202.057,190.235 201.5,188.5C 198.366,187.198 196.532,184.865 196,181.5C 195.667,181.833 195.333,182.167 195,182.5C 194.617,178.994 193.283,175.994 191,173.5C 189.775,173.862 188.609,174.362 187.5,175C 189.492,175.574 190.992,176.741 192,178.5C 192.34,183.469 193.506,188.135 195.5,192.5C 197.942,192.119 198.609,192.786 197.5,194.5C 200.155,200.16 202.822,205.827 205.5,211.5C 209.178,216.206 212.844,220.872 216.5,225.5C 219.833,228.167 222.833,231.167 225.5,234.5C 226.167,234.167 226.833,233.833 227.5,233.5C 228.7,234.531 230.034,235.365 231.5,236C 234.695,236.181 237.695,236.681 240.5,237.5C 236.386,239.117 232.053,239.951 227.5,240C 229.912,242.035 229.245,243.035 225.5,243C 227.788,243.822 230.122,244.489 232.5,245C 228.663,246.673 224.996,246.173 221.5,243.5C 218.719,243.464 215.886,243.798 213,244.5C 208.443,242.731 203.943,242.064 199.5,242.5C 199.209,241.351 198.376,240.684 197,240.5C 186.14,241.247 175.307,242.247 164.5,243.5C 163.53,242.371 162.364,241.371 161,240.5C 157.69,242.244 154.19,243.078 150.5,243C 151.444,240.281 151.777,237.448 151.5,234.5C 149.698,229.284 150.364,224.451 153.5,220C 152.913,217.375 152.58,214.708 152.5,212C 155.077,199.622 155.911,187.122 155,174.5C 152.201,183.882 150.701,193.549 150.5,203.5C 148.245,204.215 146.412,205.548 145,207.5C 143.926,206.382 142.76,205.382 141.5,204.5C 142.167,203.833 142.833,203.167 143.5,202.5C 138.786,199.278 138.786,195.778 143.5,192C 140.096,190.277 136.763,189.11 133.5,188.5C 135.581,185.252 138.414,182.919 142,181.5C 143.791,178.009 144.458,174.342 144,170.5C 143.333,171.833 142.667,171.833 142,170.5C 141.19,163.918 141.357,157.418 142.5,151C 140.96,143.289 140.294,135.456 140.5,127.5C 143.523,127.895 144.523,126.895 143.5,124.5C 145.063,120.647 146.23,116.647 147,112.5C 148.011,113.337 149.178,113.67 150.5,113.5C 151.426,111.822 151.26,108.156 150,102.5C 152.57,100.131 155.404,98.1312 158.5,96.5C 159.386,95.675 159.719,94.675 159.5,93.5C 165.057,92.7008 170.39,91.3674 175.5,89.5C 175.5,88.5 175.5,87.5 175.5,86.5C 176.873,86.6567 178.207,86.49 179.5,86C 178.748,85.3292 178.414,84.4959 178.5,83.5C 188.144,82.8537 191.144,78.187 187.5,69.5C 187.5,68.8333 187.833,68.5 188.5,68.5 Z"/></g>
<g><path style="opacity:1" fill="#e0dcdc" d="M -0.5,-0.5 C -0.166667,-0.5 0.166667,-0.5 0.5,-0.5C 0.167019,31.5234 0.833686,63.5234 2.5,95.5C 3.44606,95.0133 4.44606,94.6799 5.5,94.5C 8.80584,95.1633 12.1392,95.6633 15.5,96C 16.435,98.3806 16.7683,100.881 16.5,103.5C 19.5,103.167 20.8333,104.5 20.5,107.5C 24.4659,108.162 28.4659,108.495 32.5,108.5C 33.389,112.121 34.7223,115.621 36.5,119C 36.1667,119.833 35.8333,120.667 35.5,121.5C 34.5713,120.311 34.238,118.978 34.5,117.5C 33.1266,117.343 31.7932,117.51 30.5,118C 32.1922,119.401 32.8588,121.234 32.5,123.5C 35.8333,123.5 37.5,125.167 37.5,128.5C 41.1817,128.335 44.8484,128.501 48.5,129C 49.3802,130.356 49.7135,131.856 49.5,133.5C 48.1667,133.5 46.8333,133.5 45.5,133.5C 45.5,137.5 45.5,141.5 45.5,145.5C 46.8333,145.5 48.1667,145.5 49.5,145.5C 49.238,146.978 49.5713,148.311 50.5,149.5C 53.4509,148.643 56.4509,148.643 59.5,149.5C 59.4809,147.94 59.1476,146.44 58.5,145C 59.5089,143.832 60.5089,142.665 61.5,141.5C 60.0183,139.29 60.5183,137.624 63,136.5C 65.899,136.977 68.5657,137.977 71,139.5C 71.8261,137.595 72.9928,137.261 74.5,138.5C 72.0221,140.564 72.0221,142.564 74.5,144.5C 73.4826,147.028 72.3159,147.028 71,144.5C 68.5184,145.998 66.0184,147.498 63.5,149C 65.1066,150.049 65.7733,151.549 65.5,153.5C 70.8437,153.334 76.1771,153.501 81.5,154C 82.4732,159.407 82.8066,164.907 82.5,170.5C 83.8333,170.5 85.1667,170.5 86.5,170.5C 86.5,173.167 86.5,175.833 86.5,178.5C 87.8333,178.5 89.1667,178.5 90.5,178.5C 90.5,181.167 90.5,183.833 90.5,186.5C 93.1667,186.5 95.8333,186.5 98.5,186.5C 98.5,188.833 98.5,191.167 98.5,193.5C 95.8333,193.5 93.1667,193.5 90.5,193.5C 90.238,194.978 90.5713,196.311 91.5,197.5C 92.3857,196.675 92.719,195.675 92.5,194.5C 93.8333,194.5 95.1667,194.5 96.5,194.5C 97.0035,198.335 98.0035,198.335 99.5,194.5C 100.325,198.122 100.825,201.789 101,205.5C 102.836,203.396 105.002,203.062 107.5,204.5C 106.91,205.799 105.91,206.632 104.5,207C 106.167,208 107.5,209.333 108.5,211C 107.892,211.87 107.059,212.37 106,212.5C 103.79,210.889 101.29,210.222 98.5,210.5C 98.2865,212.144 98.6198,213.644 99.5,215C 102.095,215.226 104.595,215.726 107,216.5C 107.499,220.486 107.666,224.486 107.5,228.5C 106.5,228.5 105.5,228.5 104.5,228.5C 104.5,225.833 104.5,223.167 104.5,220.5C 103.167,220.5 101.833,220.5 100.5,220.5C 99.6902,226.146 99.0235,231.813 98.5,237.5C 97.1266,237.343 95.7932,237.51 94.5,238C 97.7843,241.601 100.618,245.434 103,249.5C 103.667,250.833 103.667,252.167 103,253.5C 102.259,254.641 101.425,254.641 100.5,253.5C 98.8255,248.812 96.1588,244.812 92.5,241.5C 91.6143,242.325 91.281,243.325 91.5,244.5C 92.5,244.5 93.5,244.5 94.5,244.5C 94.5,247.167 94.5,249.833 94.5,252.5C 95.8333,252.5 97.1667,252.5 98.5,252.5C 98.5,255.5 98.5,258.5 98.5,261.5C 95.1019,261.858 91.9353,261.192 89,259.5C 85.2129,262.601 82.8795,266.601 82,271.5C 80.9326,272.191 79.7659,272.691 78.5,273C 83.6282,274.105 83.6282,275.438 78.5,277C 79.7659,277.309 80.9326,277.809 82,278.5C 82.4974,281.146 82.6641,283.813 82.5,286.5C 76.8333,286.5 71.1667,286.5 65.5,286.5C 65.8134,289.247 65.48,291.914 64.5,294.5C 63.1667,282.5 61.8333,282.5 60.5,294.5C 59.6816,291.893 59.1816,289.226 59,286.5C 57.5962,292.044 57.0962,297.71 57.5,303.5C 54.8127,303.664 52.146,303.497 49.5,303C 48.6634,301.989 48.33,300.822 48.5,299.5C 47.5,299.5 46.5,299.5 45.5,299.5C 45.6495,300.552 45.4828,301.552 45,302.5C 42.5,304.833 40,307.167 37.5,309.5C 33.2663,306.442 28.5996,305.275 23.5,306C 24.3002,310.192 24.6335,314.359 24.5,318.5C 22.6471,319.76 20.8138,319.76 19,318.5C 17.117,319.653 16.2837,321.319 16.5,323.5C 13.1016,323.18 9.76829,323.513 6.5,324.5C 8.33482,325.428 8.66816,326.594 7.5,328C 5.5273,328.495 3.5273,328.662 1.5,328.5C 0.713365,383.496 0.380031,438.496 0.5,493.5C 0.5,508.833 0.5,524.167 0.5,539.5C 0.166667,539.5 -0.166667,539.5 -0.5,539.5C -0.5,359.5 -0.5,179.5 -0.5,-0.5 Z"/></g>
<g><path style="opacity:1" fill="#161722" d="M 217.5,79.5 C 218.928,84.594 222.262,87.594 227.5,88.5C 227.542,92.0087 226.876,95.342 225.5,98.5C 230.074,99.3305 234.574,99.3305 239,98.5C 240.019,99.6872 241.186,100.687 242.5,101.5C 243.192,100.975 243.692,100.308 244,99.5C 249.225,102.218 254.058,105.551 258.5,109.5C 259.842,115.76 260.675,122.093 261,128.5C 261.471,130.246 262.138,131.913 263,133.5C 263.333,132.833 263.667,132.167 264,131.5C 266.01,152.187 268.843,172.52 272.5,192.5C 273.434,193.568 273.768,194.901 273.5,196.5C 272.327,211.969 270.994,227.469 269.5,243C 270.474,245.421 271.14,247.921 271.5,250.5C 270.92,253.685 270.92,257.019 271.5,260.5C 271.24,265.753 270.24,270.086 268.5,273.5C 267.833,273.5 267.167,273.5 266.5,273.5C 264.565,272.85 262.565,272.517 260.5,272.5C 258.469,272.028 256.802,271.028 255.5,269.5C 256.119,266.752 256.452,263.919 256.5,261C 255.223,243.45 253.556,225.95 251.5,208.5C 252.117,208.611 252.617,208.944 253,209.5C 252.996,215.172 254.496,220.339 257.5,225C 256.483,226.049 256.316,227.216 257,228.5C 257.333,227.833 257.667,227.167 258,226.5C 259.11,228.037 260.61,228.703 262.5,228.5C 262.753,226.173 262.086,224.173 260.5,222.5C 262.455,220.332 263.121,217.998 262.5,215.5C 261.32,211.873 259.653,208.54 257.5,205.5C 258.635,201.961 260.468,201.628 263,204.5C 263.179,207.553 263.679,210.553 264.5,213.5C 265.167,213.833 265.833,214.167 266.5,214.5C 267.17,211.573 267.503,208.74 267.5,206C 266.606,204.604 265.939,203.104 265.5,201.5C 266.547,199.944 267.214,198.277 267.5,196.5C 268.5,196.5 269.5,196.5 270.5,196.5C 270.813,193.428 270.146,190.595 268.5,188C 269.544,184.726 268.544,182.059 265.5,180C 266.308,179.692 266.975,179.192 267.5,178.5C 266.588,175.441 265.088,172.774 263,170.5C 262.259,167.438 262.425,164.438 263.5,161.5C 261.424,160.9 259.424,160.567 257.5,160.5C 256.673,156.541 256.173,152.541 256,148.5C 255.667,148.833 255.333,149.167 255,149.5C 254.545,146.863 255.045,144.363 256.5,142C 255.398,139.461 255.398,136.961 256.5,134.5C 255.675,133.614 254.675,133.281 253.5,133.5C 252.336,131.736 253.003,127.403 255.5,120.5C 255.523,118.933 255.023,117.6 254,116.5C 252.226,121.626 248.726,124.46 243.5,125C 242.978,125.561 242.645,126.228 242.5,127C 245.167,130 245.167,133 242.5,136C 242.905,136.945 243.572,137.612 244.5,138C 241.852,139.633 240.519,141.967 240.5,145C 241.8,153.715 241.8,162.549 240.5,171.5C 240.667,175.5 240.833,179.5 241,183.5C 241.852,184.571 242.685,185.571 243.5,186.5C 245.114,197.514 245.781,208.514 245.5,219.5C 244.636,222.254 244.302,224.92 244.5,227.5C 245.167,228.5 245.833,229.5 246.5,230.5C 246.471,232.029 245.804,233.196 244.5,234C 246.994,237.479 247.827,241.313 247,245.5C 244.376,245.53 241.709,245.197 239,244.5C 239.471,242.667 240.304,240.834 241.5,239C 240.944,238.617 240.611,238.117 240.5,237.5C 237.695,236.681 234.695,236.181 231.5,236C 230.034,235.365 228.7,234.531 227.5,233.5C 226.833,233.833 226.167,234.167 225.5,234.5C 222.833,231.167 219.833,228.167 216.5,225.5C 212.844,220.872 209.178,216.206 205.5,211.5C 202.822,205.827 200.155,200.16 197.5,194.5C 198.609,192.786 197.942,192.119 195.5,192.5C 193.506,188.135 192.34,183.469 192,178.5C 190.992,176.741 189.492,175.574 187.5,175C 188.609,174.362 189.775,173.862 191,173.5C 193.283,175.994 194.617,178.994 195,182.5C 195.333,182.167 195.667,181.833 196,181.5C 196.532,184.865 198.366,187.198 201.5,188.5C 202.057,190.235 202.39,191.902 202.5,193.5C 206.297,198.083 210.963,200.083 216.5,199.5C 216.244,197.208 216.577,195.041 217.5,193C 214.666,190.487 213.333,187.654 213.5,184.5C 214.428,186.335 215.594,186.668 217,185.5C 219.917,189.751 221.75,194.418 222.5,199.5C 229.134,199.677 229.134,200.177 222.5,201C 226.804,201.031 230.804,202.031 234.5,204C 235.369,206.579 237.035,208.412 239.5,209.5C 239.833,208.167 240.167,206.833 240.5,205.5C 240.103,200.907 238.936,196.574 237,192.5C 235.669,177.179 234.169,161.846 232.5,146.5C 233.625,143.54 234.625,140.54 235.5,137.5C 236.524,136.147 237.857,135.48 239.5,135.5C 239.628,131.119 239.295,126.785 238.5,122.5C 241.881,122.54 245.214,122.207 248.5,121.5C 248.5,120.5 248.5,119.5 248.5,118.5C 246.801,118.66 245.134,118.494 243.5,118C 245.81,117.503 248.143,117.337 250.5,117.5C 250.785,115.712 250.452,114.045 249.5,112.5C 248.575,111.359 247.741,111.359 247,112.5C 246.163,110.649 245.329,108.816 244.5,107C 242.874,107.195 241.207,107.195 239.5,107C 239.833,106.667 240.167,106.333 240.5,106C 236.166,100.949 230.166,98.7825 222.5,99.5C 222.889,96.6996 223.389,94.0329 224,91.5C 222.809,88.4659 220.642,86.7993 217.5,86.5C 216.47,85.4477 215.803,84.1143 215.5,82.5C 215.64,80.9704 216.307,79.9704 217.5,79.5 Z"/></g>
<g><path style="opacity:1" fill="#2f2e3e" d="M 152.5,95.5 C 151.7,97.7409 150.034,98.7409 147.5,98.5C 143.275,108.859 139.275,119.192 135.5,129.5C 135.801,117.926 139.468,107.593 146.5,98.5C 148.243,96.9617 150.243,95.9617 152.5,95.5 Z"/></g>
<g><path style="opacity:1" fill="#34354b" d="M 135.5,129.5 C 135.892,139.06 135.225,148.393 133.5,157.5C 133.649,156.448 133.483,155.448 133,154.5C 132.226,158.147 131.559,161.814 131,165.5C 130.503,162.854 130.336,160.187 130.5,157.5C 130.708,147.781 132.375,138.448 135.5,129.5 Z"/></g>
<g><path style="opacity:1" fill="#5c607b" d="M 260.5,106.5 C 263.593,112.818 266.093,119.485 268,126.5C 269.357,142.162 270.523,157.829 271.5,173.5C 269.178,158.708 267.345,143.708 266,128.5C 264.604,121.01 262.771,113.676 260.5,106.5 Z"/></g>
<g><path style="opacity:1" fill="#11121a" d="M 251.5,208.5 C 248.236,199.834 246.402,190.834 246,181.5C 244.88,183.03 244.046,184.697 243.5,186.5C 242.685,185.571 241.852,184.571 241,183.5C 240.833,179.5 240.667,175.5 240.5,171.5C 241.8,162.549 241.8,153.715 240.5,145C 240.519,141.967 241.852,139.633 244.5,138C 243.572,137.612 242.905,136.945 242.5,136C 245.167,133 245.167,130 242.5,127C 242.645,126.228 242.978,125.561 243.5,125C 248.726,124.46 252.226,121.626 254,116.5C 255.023,117.6 255.523,118.933 255.5,120.5C 253.003,127.403 252.336,131.736 253.5,133.5C 254.675,133.281 255.675,133.614 256.5,134.5C 255.398,136.961 255.398,139.461 256.5,142C 255.045,144.363 254.545,146.863 255,149.5C 255.333,149.167 255.667,148.833 256,148.5C 256.173,152.541 256.673,156.541 257.5,160.5C 259.424,160.567 261.424,160.9 263.5,161.5C 262.425,164.438 262.259,167.438 263,170.5C 265.088,172.774 266.588,175.441 267.5,178.5C 266.975,179.192 266.308,179.692 265.5,180C 268.544,182.059 269.544,184.726 268.5,188C 270.146,190.595 270.813,193.428 270.5,196.5C 269.5,196.5 268.5,196.5 267.5,196.5C 267.214,198.277 266.547,199.944 265.5,201.5C 265.939,203.104 266.606,204.604 267.5,206C 267.503,208.74 267.17,211.573 266.5,214.5C 265.833,214.167 265.167,213.833 264.5,213.5C 263.679,210.553 263.179,207.553 263,204.5C 260.468,201.628 258.635,201.961 257.5,205.5C 259.653,208.54 261.32,211.873 262.5,215.5C 263.121,217.998 262.455,220.332 260.5,222.5C 262.086,224.173 262.753,226.173 262.5,228.5C 260.61,228.703 259.11,228.037 258,226.5C 257.667,227.167 257.333,227.833 257,228.5C 256.316,227.216 256.483,226.049 257.5,225C 254.496,220.339 252.996,215.172 253,209.5C 252.617,208.944 252.117,208.611 251.5,208.5 Z"/></g>
<g><path style="opacity:1" fill="#5b5c71" d="M 133.5,157.5 C 132.952,163.451 131.618,169.117 129.5,174.5C 129.178,168.642 129.511,162.975 130.5,157.5C 130.336,160.187 130.503,162.854 131,165.5C 131.559,161.814 132.226,158.147 133,154.5C 133.483,155.448 133.649,156.448 133.5,157.5 Z"/></g>
<g><path style="opacity:1" fill="#171821" d="M 178.5,83.5 C 178.414,84.4959 178.748,85.3292 179.5,86C 178.207,86.49 176.873,86.6567 175.5,86.5C 175.5,87.5 175.5,88.5 175.5,89.5C 170.39,91.3674 165.057,92.7008 159.5,93.5C 159.719,94.675 159.386,95.675 158.5,96.5C 155.404,98.1312 152.57,100.131 150,102.5C 151.26,108.156 151.426,111.822 150.5,113.5C 149.178,113.67 148.011,113.337 147,112.5C 146.23,116.647 145.063,120.647 143.5,124.5C 144.523,126.895 143.523,127.895 140.5,127.5C 140.294,135.456 140.96,143.289 142.5,151C 141.357,157.418 141.19,163.918 142,170.5C 142.667,171.833 143.333,171.833 144,170.5C 144.458,174.342 143.791,178.009 142,181.5C 138.414,182.919 135.581,185.252 133.5,188.5C 136.763,189.11 140.096,190.277 143.5,192C 138.786,195.778 138.786,199.278 143.5,202.5C 142.833,203.167 142.167,203.833 141.5,204.5C 142.76,205.382 143.926,206.382 145,207.5C 146.412,205.548 148.245,204.215 150.5,203.5C 149.027,208.057 147.861,212.724 147,217.5C 146.13,228.917 144.963,240.25 143.5,251.5C 141.403,252.879 141.07,254.545 142.5,256.5C 142.477,259.457 141.477,261.957 139.5,264C 139.833,264.333 140.167,264.667 140.5,265C 138.618,265.198 136.952,265.698 135.5,266.5C 134.167,266.5 132.833,266.5 131.5,266.5C 132.196,261.632 131.53,256.798 129.5,252C 129.615,250.105 130.282,248.438 131.5,247C 128.812,244.629 127.145,241.629 126.5,238C 128.858,230.935 129.858,223.601 129.5,216C 128.889,207.774 128.722,199.607 129,191.5C 127.929,194.113 127.095,194.113 126.5,191.5C 126.455,185.64 127.455,179.973 129.5,174.5C 131.618,169.117 132.952,163.451 133.5,157.5C 135.225,148.393 135.892,139.06 135.5,129.5C 139.275,119.192 143.275,108.859 147.5,98.5C 150.034,98.7409 151.7,97.7409 152.5,95.5C 161.332,92.0876 169.998,88.0876 178.5,83.5 Z"/></g>
<g><path style="opacity:1" fill="#292a3a" d="M 126.5,191.5 C 127.095,194.113 127.929,194.113 129,191.5C 128.722,199.607 128.889,207.774 129.5,216C 129.858,223.601 128.858,230.935 126.5,238C 127.145,241.629 128.812,244.629 131.5,247C 130.282,248.438 129.615,250.105 129.5,252C 131.53,256.798 132.196,261.632 131.5,266.5C 130.833,266.5 130.5,266.833 130.5,267.5C 129.391,267.557 128.391,267.89 127.5,268.5C 125.382,242.709 125.049,217.042 126.5,191.5 Z"/></g>
<g><path style="opacity:1" fill="#d1d0d1" d="M 151.5,234.5 C 150.571,237.675 149.738,241.009 149,244.5C 147.147,246.903 145.314,249.236 143.5,251.5C 144.963,240.25 146.13,228.917 147,217.5C 147.861,212.724 149.027,208.057 150.5,203.5C 150.701,193.549 152.201,183.882 155,174.5C 155.911,187.122 155.077,199.622 152.5,212C 152.58,214.708 152.913,217.375 153.5,220C 150.364,224.451 149.698,229.284 151.5,234.5 Z"/></g>
<g><path style="opacity:1" fill="#d2d1d2" d="M 251.5,208.5 C 253.556,225.95 255.223,243.45 256.5,261C 256.452,263.919 256.119,266.752 255.5,269.5C 254.872,271.662 253.539,273.328 251.5,274.5C 250.584,258.539 248.917,242.706 246.5,227C 247.691,224.274 247.358,221.774 245.5,219.5C 245.781,208.514 245.114,197.514 243.5,186.5C 244.046,184.697 244.88,183.03 246,181.5C 246.402,190.834 248.236,199.834 251.5,208.5 Z"/></g>
<g><path style="opacity:1" fill="#33374d" d="M 273.5,196.5 C 274.461,198.265 274.795,200.265 274.5,202.5C 274.664,205.187 274.497,207.854 274,210.5C 273.667,210.167 273.333,209.833 273,209.5C 272.833,210.5 272.667,211.5 272.5,212.5C 273.356,226.998 273.689,241.331 273.5,255.5C 273.624,261.599 272.957,267.599 271.5,273.5C 270.5,273.5 269.5,273.5 268.5,273.5C 270.24,270.086 271.24,265.753 271.5,260.5C 270.92,257.019 270.92,253.685 271.5,250.5C 271.14,247.921 270.474,245.421 269.5,243C 270.994,227.469 272.327,211.969 273.5,196.5 Z"/></g>
<g><path style="opacity:1" fill="#606885" d="M 274.5,202.5 C 275.164,204.978 275.497,207.645 275.5,210.5C 274.896,225.513 274.229,240.513 273.5,255.5C 273.689,241.331 273.356,226.998 272.5,212.5C 272.667,211.5 272.833,210.5 273,209.5C 273.333,209.833 273.667,210.167 274,210.5C 274.497,207.854 274.664,205.187 274.5,202.5 Z"/></g>
<g><path style="opacity:1" fill="#17181c" d="M 245.5,219.5 C 247.358,221.774 247.691,224.274 246.5,227C 248.917,242.706 250.584,258.539 251.5,274.5C 250.833,275.833 250.167,277.167 249.5,278.5C 248.685,279.429 247.852,280.429 247,281.5C 245.913,288.46 245.413,295.46 245.5,302.5C 246.552,302.351 247.552,302.517 248.5,303C 246.119,303.223 244.453,304.39 243.5,306.5C 241.903,307.09 240.569,308.09 239.5,309.5C 238.575,308.359 237.741,308.359 237,309.5C 237.462,323.795 237.962,338.128 238.5,352.5C 238.5,355.167 238.5,357.833 238.5,360.5C 233.735,362.821 230.735,366.654 229.5,372C 231.114,381.861 232.28,391.694 233,401.5C 231.243,403.408 229.743,405.408 228.5,407.5C 230.233,410.797 231.233,414.297 231.5,418C 230.807,422.576 229.807,427.076 228.5,431.5C 224.115,440.44 219.615,449.44 215,458.5C 214.333,461.167 214.333,463.833 215,466.5C 215.283,463.258 216.117,462.924 217.5,465.5C 218.863,464.121 219.863,464.287 220.5,466C 219.896,468.524 219.229,471.024 218.5,473.5C 219.19,476.068 219.523,478.568 219.5,481C 218.552,481.483 217.552,481.649 216.5,481.5C 216.649,482.552 216.483,483.552 216,484.5C 215.326,483.422 214.326,482.755 213,482.5C 210.917,483.231 209.084,484.231 207.5,485.5C 206.292,486.234 204.959,486.567 203.5,486.5C 204.26,479.191 204.927,471.858 205.5,464.5C 203.788,443.349 202.122,422.349 200.5,401.5C 200.175,393.981 200.508,386.648 201.5,379.5C 202.151,380.091 202.818,380.757 203.5,381.5C 204.936,379.178 206.77,378.511 209,379.5C 210.519,377.444 211.353,375.11 211.5,372.5C 210.751,365.754 209.084,359.254 206.5,353C 207.426,349.861 207.592,346.694 207,343.5C 205.184,345.441 203.184,346.108 201,345.5C 200.349,338.756 198.849,332.09 196.5,325.5C 196.296,322.482 195.963,319.482 195.5,316.5C 197.285,316.926 198.285,318.092 198.5,320C 199.167,322.667 199.833,325.333 200.5,328C 198.978,331.016 199.978,332.849 203.5,333.5C 205.353,332.811 206.519,331.478 207,329.5C 208.213,333.797 210.713,336.963 214.5,339C 212.096,339.196 210.429,340.362 209.5,342.5C 210.631,343.604 211.465,343.271 212,341.5C 215.291,343.024 215.125,344.357 211.5,345.5C 214.715,346.448 215.048,347.781 212.5,349.5C 214.721,351.693 216.054,354.36 216.5,357.5C 216.22,361.047 216.22,364.713 216.5,368.5C 217.833,368.5 219.167,368.5 220.5,368.5C 220.927,365.212 220.26,362.212 218.5,359.5C 219.167,358.833 219.833,358.167 220.5,357.5C 218.945,355.057 218.278,352.39 218.5,349.5C 220.971,349.767 222.638,348.767 223.5,346.5C 222.844,344.547 222.511,342.547 222.5,340.5C 218.451,340.129 216.451,337.796 216.5,333.5C 218.393,330.382 219.726,327.049 220.5,323.5C 219.884,319.855 219.55,316.188 219.5,312.5C 215.759,313.401 213.759,312.068 213.5,308.5C 214.873,308.657 216.207,308.49 217.5,308C 215.5,307.333 213.5,306.667 211.5,306C 212.967,304.902 213.801,303.402 214,301.5C 216.381,300.565 218.881,300.232 221.5,300.5C 221.5,299.167 221.5,297.833 221.5,296.5C 218.786,296.75 216.119,296.917 213.5,297C 214.729,294.381 214.396,291.881 212.5,289.5C 215.511,285.178 214.344,282.512 209,281.5C 208.28,279.888 208.446,278.388 209.5,277C 205.725,275.945 202.058,274.612 198.5,273C 199.623,271.956 200.956,271.29 202.5,271C 201.333,270.5 200.5,269.667 200,268.5C 198.982,269.706 198.482,269.373 198.5,267.5C 199.167,266.5 199.833,265.5 200.5,264.5C 200.518,262.627 200.018,262.294 199,263.5C 198.998,256.513 199.165,249.513 199.5,242.5C 203.943,242.064 208.443,242.731 213,244.5C 215.886,243.798 218.719,243.464 221.5,243.5C 224.996,246.173 228.663,246.673 232.5,245C 230.122,244.489 227.788,243.822 225.5,243C 229.245,243.035 229.912,242.035 227.5,240C 232.053,239.951 236.386,239.117 240.5,237.5C 240.611,238.117 240.944,238.617 241.5,239C 240.304,240.834 239.471,242.667 239,244.5C 241.709,245.197 244.376,245.53 247,245.5C 247.827,241.313 246.994,237.479 244.5,234C 245.804,233.196 246.471,232.029 246.5,230.5C 245.833,229.5 245.167,228.5 244.5,227.5C 244.302,224.92 244.636,222.254 245.5,219.5 Z"/></g>
<g><path style="opacity:1" fill="#16161a" d="M 151.5,234.5 C 151.777,237.448 151.444,240.281 150.5,243C 154.19,243.078 157.69,242.244 161,240.5C 162.364,241.371 163.53,242.371 164.5,243.5C 164.62,244.586 165.287,245.253 166.5,245.5C 171.361,247.264 176.361,248.431 181.5,249C 182.546,250.539 183.879,250.705 185.5,249.5C 188.93,252.199 192.93,253.533 197.5,253.5C 197.5,255.167 197.5,256.833 197.5,258.5C 196.167,258.5 194.833,258.5 193.5,258.5C 193.5,259.5 193.5,260.5 193.5,261.5C 189.63,262.799 185.63,263.466 181.5,263.5C 181.5,264.833 181.5,266.167 181.5,267.5C 184.167,267.5 186.833,267.5 189.5,267.5C 189.5,268.833 189.5,270.167 189.5,271.5C 186.861,271.571 184.694,272.571 183,274.5C 180.105,272.851 177.605,273.185 175.5,275.5C 177.785,276.129 180.119,277.129 182.5,278.5C 184.965,278.802 187.298,278.302 189.5,277C 188.692,277.308 188.025,277.808 187.5,278.5C 189.922,280.286 189.922,281.952 187.5,283.5C 184.634,284.208 181.8,284.875 179,285.5C 178.667,285.167 178.333,284.833 178,284.5C 175.582,286.68 172.916,287.013 170,285.5C 169.097,286.701 167.931,287.535 166.5,288C 167.76,289.113 168.927,289.28 170,288.5C 176.085,289.312 182.252,289.812 188.5,290C 191.21,292.351 190.877,294.351 187.5,296C 188.72,297.525 189.387,299.359 189.5,301.5C 188.808,305.498 188.641,309.498 189,313.5C 189.986,314.171 191.153,314.171 192.5,313.5C 189.902,323.626 186.902,333.626 183.5,343.5C 182.883,343.389 182.383,343.056 182,342.5C 180.433,350.336 179.433,350.336 179,342.5C 178.692,343.308 178.192,343.975 177.5,344.5C 176.332,341.531 174.999,341.198 173.5,343.5C 173.709,344.086 174.043,344.586 174.5,345C 172.619,346.102 170.952,347.435 169.5,349C 170.022,349.95 170.689,350.784 171.5,351.5C 169.718,354.019 168.218,356.685 167,359.5C 165.391,360.147 163.891,360.98 162.5,362C 162.957,362.414 163.291,362.914 163.5,363.5C 162.511,364.468 161.844,365.635 161.5,367C 164.383,374.317 166.883,381.817 169,389.5C 169.392,392.188 169.892,394.855 170.5,397.5C 170.167,398.167 169.833,398.833 169.5,399.5C 167.205,398.864 165.539,397.531 164.5,395.5C 162.87,389.905 161.537,384.239 160.5,378.5C 159.391,377.41 158.391,377.41 157.5,378.5C 158.915,388.616 159.915,398.783 160.5,409C 159.513,411.096 159.846,413.096 161.5,415C 159.751,418.528 160.084,422.195 162.5,426C 159.512,434.77 159.846,443.437 163.5,452C 162.407,460.475 162.24,468.975 163,477.5C 163.667,476.833 164.333,476.167 165,475.5C 166.16,480.434 166.66,485.434 166.5,490.5C 167.5,490.5 168.5,490.5 169.5,490.5C 169.216,492.415 169.549,494.081 170.5,495.5C 171.167,495.5 171.5,495.833 171.5,496.5C 170.938,503.453 167.271,505.953 160.5,504C 159.23,503.1 158.23,501.934 157.5,500.5C 155.902,499.515 154.235,499.349 152.5,500C 154.007,500.837 154.507,502.004 154,503.5C 152.445,501.485 150.611,501.152 148.5,502.5C 147.573,504.491 147.406,506.491 148,508.5C 145.876,507.773 143.709,507.106 141.5,506.5C 140.05,505.15 139.383,503.484 139.5,501.5C 140.496,499.177 142.162,497.51 144.5,496.5C 146.385,494.947 147.385,492.947 147.5,490.5C 146.421,484.551 146.254,478.551 147,472.5C 148.539,471.454 148.705,470.121 147.5,468.5C 148.499,465.667 149.499,462.834 150.5,460C 150.051,457.494 149.051,455.327 147.5,453.5C 148.965,451.401 150.299,449.234 151.5,447C 150.372,445.532 149.706,443.865 149.5,442C 153.932,431.318 154.932,420.485 152.5,409.5C 154.366,404.51 154.699,399.343 153.5,394C 153.286,390.431 153.953,387.098 155.5,384C 154.833,382.667 154.167,381.333 153.5,380C 151.744,379.798 150.078,379.298 148.5,378.5C 150.185,374.403 151.018,370.069 151,365.5C 152.299,364.91 153.132,363.91 153.5,362.5C 152.833,359.833 152.167,357.167 151.5,354.5C 151.919,353.328 152.585,352.328 153.5,351.5C 152.624,350.749 151.624,350.249 150.5,350C 151.934,347.779 153.934,346.279 156.5,345.5C 155.376,344.086 154.376,342.586 153.5,341C 153.38,332.271 154.046,323.604 155.5,315C 154.165,311.982 152.832,308.982 151.5,306C 152.899,303.762 152.232,303.095 149.5,304C 148.901,305.622 148.234,307.122 147.5,308.5C 146.272,307.694 145.272,306.694 144.5,305.5C 143.833,304.167 142.833,303.167 141.5,302.5C 146.262,293.241 147.595,283.574 145.5,273.5C 144.961,267.491 141.628,265.157 135.5,266.5C 136.952,265.698 138.618,265.198 140.5,265C 140.167,264.667 139.833,264.333 139.5,264C 141.477,261.957 142.477,259.457 142.5,256.5C 142.629,254.784 142.962,253.117 143.5,251.5C 145.314,249.236 147.147,246.903 149,244.5C 149.738,241.009 150.571,237.675 151.5,234.5 Z"/></g>
<g><path style="opacity:1" fill="#9c9ca1" d="M 143.5,251.5 C 142.962,253.117 142.629,254.784 142.5,256.5C 141.07,254.545 141.403,252.879 143.5,251.5 Z"/></g>
<g><path style="opacity:1" fill="#121316" d="M 199.5,242.5 C 199.165,249.513 198.998,256.513 199,263.5C 200.018,262.294 200.518,262.627 200.5,264.5C 199.833,265.5 199.167,266.5 198.5,267.5C 198.482,269.373 198.982,269.706 200,268.5C 200.5,269.667 201.333,270.5 202.5,271C 200.956,271.29 199.623,271.956 198.5,273C 202.058,274.612 205.725,275.945 209.5,277C 208.446,278.388 208.28,279.888 209,281.5C 214.344,282.512 215.511,285.178 212.5,289.5C 214.396,291.881 214.729,294.381 213.5,297C 216.119,296.917 218.786,296.75 221.5,296.5C 221.5,297.833 221.5,299.167 221.5,300.5C 218.881,300.232 216.381,300.565 214,301.5C 213.801,303.402 212.967,304.902 211.5,306C 213.5,306.667 215.5,307.333 217.5,308C 216.207,308.49 214.873,308.657 213.5,308.5C 213.759,312.068 215.759,313.401 219.5,312.5C 219.55,316.188 219.884,319.855 220.5,323.5C 219.726,327.049 218.393,330.382 216.5,333.5C 216.451,337.796 218.451,340.129 222.5,340.5C 222.511,342.547 222.844,344.547 223.5,346.5C 222.638,348.767 220.971,349.767 218.5,349.5C 218.278,352.39 218.945,355.057 220.5,357.5C 219.833,358.167 219.167,358.833 218.5,359.5C 220.26,362.212 220.927,365.212 220.5,368.5C 219.167,368.5 217.833,368.5 216.5,368.5C 216.22,364.713 216.22,361.047 216.5,357.5C 216.054,354.36 214.721,351.693 212.5,349.5C 215.048,347.781 214.715,346.448 211.5,345.5C 215.125,344.357 215.291,343.024 212,341.5C 211.465,343.271 210.631,343.604 209.5,342.5C 210.429,340.362 212.096,339.196 214.5,339C 210.713,336.963 208.213,333.797 207,329.5C 206.519,331.478 205.353,332.811 203.5,333.5C 199.978,332.849 198.978,331.016 200.5,328C 199.833,325.333 199.167,322.667 198.5,320C 198.285,318.092 197.285,316.926 195.5,316.5C 195.813,313.753 195.48,311.086 194.5,308.5C 193.893,308.624 193.56,308.957 193.5,309.5C 193.167,310.833 192.833,312.167 192.5,313.5C 191.153,314.171 189.986,314.171 189,313.5C 188.641,309.498 188.808,305.498 189.5,301.5C 189.387,299.359 188.72,297.525 187.5,296C 190.877,294.351 191.21,292.351 188.5,290C 182.252,289.812 176.085,289.312 170,288.5C 168.927,289.28 167.76,289.113 166.5,288C 167.931,287.535 169.097,286.701 170,285.5C 172.916,287.013 175.582,286.68 178,284.5C 178.333,284.833 178.667,285.167 179,285.5C 181.8,284.875 184.634,284.208 187.5,283.5C 189.922,281.952 189.922,280.286 187.5,278.5C 188.025,277.808 188.692,277.308 189.5,277C 187.298,278.302 184.965,278.802 182.5,278.5C 180.119,277.129 177.785,276.129 175.5,275.5C 177.605,273.185 180.105,272.851 183,274.5C 184.694,272.571 186.861,271.571 189.5,271.5C 189.5,270.167 189.5,268.833 189.5,267.5C 186.833,267.5 184.167,267.5 181.5,267.5C 181.5,266.167 181.5,264.833 181.5,263.5C 185.63,263.466 189.63,262.799 193.5,261.5C 193.5,260.5 193.5,259.5 193.5,258.5C 194.833,258.5 196.167,258.5 197.5,258.5C 197.5,256.833 197.5,255.167 197.5,253.5C 192.93,253.533 188.93,252.199 185.5,249.5C 183.879,250.705 182.546,250.539 181.5,249C 176.361,248.431 171.361,247.264 166.5,245.5C 165.287,245.253 164.62,244.586 164.5,243.5C 175.307,242.247 186.14,241.247 197,240.5C 198.376,240.684 199.209,241.351 199.5,242.5 Z"/></g>
<g><path style="opacity:1" fill="#b39286" d="M 130.5,267.5 C 130.241,271.24 130.574,274.906 131.5,278.5C 129.647,280.691 129.313,283.025 130.5,285.5C 129.86,288.648 128.86,288.981 127.5,286.5C 126.505,291.792 126.172,297.125 126.5,302.5C 125.835,299.686 125.502,296.686 125.5,293.5C 126.085,285.155 126.752,276.822 127.5,268.5C 128.391,267.89 129.391,267.557 130.5,267.5 Z"/></g>
<g><path style="opacity:1" fill="#ddd9d8" d="M 273.5,255.5 C 275.161,257.633 276.161,260.133 276.5,263C 274.751,266.837 273.751,270.67 273.5,274.5C 274.167,275.5 274.833,276.5 275.5,277.5C 275.162,279.655 275.162,281.989 275.5,284.5C 279.833,284.5 284.167,284.5 288.5,284.5C 288.5,287.833 288.5,291.167 288.5,294.5C 294.167,294.5 299.833,294.5 305.5,294.5C 305.5,297.167 305.5,299.833 305.5,302.5C 309.5,302.5 313.5,302.5 317.5,302.5C 317.5,303.833 317.5,305.167 317.5,306.5C 318.833,306.5 320.167,306.5 321.5,306.5C 321.5,307.833 321.5,309.167 321.5,310.5C 324.448,310.223 327.281,310.556 330,311.5C 330.497,314.146 330.664,316.813 330.5,319.5C 335.833,319.5 341.167,319.5 346.5,319.5C 346.5,320.833 346.5,322.167 346.5,323.5C 352.167,323.5 357.833,323.5 363.5,323.5C 363.5,327.5 363.5,331.5 363.5,335.5C 367.809,335.244 371.809,336.244 375.5,338.5C 377.104,340.179 377.771,342.179 377.5,344.5C 379.5,344.5 381.5,344.5 383.5,344.5C 383.5,349.833 383.5,355.167 383.5,360.5C 384.833,360.5 386.167,360.5 387.5,360.5C 388.167,371.167 388.833,371.167 389.5,360.5C 390.5,360.5 391.5,360.5 392.5,360.5C 392.5,363.167 392.5,365.833 392.5,368.5C 395.244,368.248 397.744,368.915 400,370.5C 401,369.833 402,369.167 403,368.5C 404.726,369.648 404.559,370.815 402.5,372C 403.766,372.309 404.933,372.809 406,373.5C 406.5,380.158 406.666,386.825 406.5,393.5C 407.5,393.5 408.5,393.5 409.5,393.5C 410.323,400.306 410.989,410.973 411.5,425.5C 411.5,446.167 411.5,466.833 411.5,487.5C 410.837,489.042 410.17,490.709 409.5,492.5C 406.378,491.439 403.378,490.106 400.5,488.5C 399.571,487.311 399.238,485.978 399.5,484.5C 396.785,483.549 393.951,482.883 391,482.5C 387.047,483.061 383.213,484.061 379.5,485.5C 376.674,485.176 374.174,484.176 372,482.5C 369.196,484.344 366.03,485.011 362.5,484.5C 362.5,486.5 362.5,488.5 362.5,490.5C 361.167,490.5 359.833,490.5 358.5,490.5C 358.5,488.5 358.5,486.5 358.5,484.5C 350.493,484.666 342.493,484.5 334.5,484C 334,483.5 333.5,483 333,482.5C 330.4,485.236 329.067,488.569 329,492.5C 328.51,491.207 328.343,489.873 328.5,488.5C 327.5,488.5 326.5,488.5 325.5,488.5C 325.762,489.978 325.429,491.311 324.5,492.5C 322.917,490.01 321.917,487.343 321.5,484.5C 318.833,484.5 316.167,484.5 313.5,484.5C 313.5,486.833 313.5,489.167 313.5,491.5C 310.833,491.5 308.167,491.5 305.5,491.5C 305.5,489.167 305.5,486.833 305.5,484.5C 303.278,484.822 301.444,484.155 300,482.5C 297.543,485.306 296.043,488.64 295.5,492.5C 294.571,491.311 294.238,489.978 294.5,488.5C 293.167,488.5 291.833,488.5 290.5,488.5C 290.5,489.833 290.5,491.167 290.5,492.5C 285.731,492.613 281.064,491.947 276.5,490.5C 272.499,490.487 270.832,492.487 271.5,496.5C 269.143,496.337 266.81,496.503 264.5,497C 262.782,501.746 261.782,501.579 261.5,496.5C 257.317,496.863 253.317,496.196 249.5,494.5C 246.358,496.119 243.025,496.785 239.5,496.5C 239.5,495.5 239.5,494.5 239.5,493.5C 235.694,493.98 232.361,492.98 229.5,490.5C 227.568,491.145 226.401,492.479 226,494.5C 225.901,492.347 225.067,490.681 223.5,489.5C 222.361,486.996 221.694,484.33 221.5,481.5C 222.5,481.5 223.5,481.5 224.5,481.5C 224.844,471.434 225.844,461.434 227.5,451.5C 233.207,421.552 236.874,391.219 238.5,360.5C 238.5,357.833 238.5,355.167 238.5,352.5C 240.614,337.65 242.614,322.65 244.5,307.5C 246.5,307.5 248.5,307.5 250.5,307.5C 253.32,307.752 255.986,307.252 258.5,306C 261.708,302.297 264.708,298.463 267.5,294.5C 268.117,294.389 268.617,294.056 269,293.5C 269.64,286.757 270.473,280.091 271.5,273.5C 272.957,267.599 273.624,261.599 273.5,255.5 Z"/></g>
<g><path style="opacity:1" fill="#a07263" d="M 131.5,266.5 C 132.833,266.5 134.167,266.5 135.5,266.5C 141.628,265.157 144.961,267.491 145.5,273.5C 145.493,280.233 144.827,286.899 143.5,293.5C 141.8,295.795 139.466,297.128 136.5,297.5C 137.376,298.251 138.376,298.751 139.5,299C 138.16,301.149 138.827,302.316 141.5,302.5C 142.833,303.167 143.833,304.167 144.5,305.5C 144.5,306.833 143.833,307.5 142.5,307.5C 139.695,306.681 136.695,306.181 133.5,306C 130.826,305.33 128.493,304.163 126.5,302.5C 126.172,297.125 126.505,291.792 127.5,286.5C 128.86,288.981 129.86,288.648 130.5,285.5C 129.313,283.025 129.647,280.691 131.5,278.5C 130.574,274.906 130.241,271.24 130.5,267.5C 130.5,266.833 130.833,266.5 131.5,266.5 Z"/></g>
<g><path style="opacity:1" fill="#c1afa3" d="M 266.5,273.5 C 267.167,273.5 267.833,273.5 268.5,273.5C 269.5,273.5 270.5,273.5 271.5,273.5C 270.473,280.091 269.64,286.757 269,293.5C 268.617,294.056 268.117,294.389 267.5,294.5C 266.659,287.535 266.326,280.535 266.5,273.5 Z"/></g>
<g><path style="opacity:1" fill="#d0c7bf" d="M 138.5,286.5 C 139.477,289.287 139.81,292.287 139.5,295.5C 138.5,295.5 137.5,295.5 136.5,295.5C 136.405,292.303 137.072,289.303 138.5,286.5 Z"/></g>
<g><path style="opacity:1" fill="#d1c6bf" d="M 253.5,288.5 C 253.919,292.773 253.252,296.773 251.5,300.5C 250.749,301.573 249.749,301.74 248.5,301C 250.101,297.733 250.934,294.233 251,290.5C 251.417,289.244 252.25,288.577 253.5,288.5 Z"/></g>
<g><path style="opacity:1" fill="#a77d6c" d="M 260.5,272.5 C 262.565,272.517 264.565,272.85 266.5,273.5C 266.326,280.535 266.659,287.535 267.5,294.5C 264.708,298.463 261.708,302.297 258.5,306C 255.986,307.252 253.32,307.752 250.5,307.5C 251.833,306.5 253.167,305.5 254.5,304.5C 255.778,301.019 257.444,297.686 259.5,294.5C 256.962,290.548 255.962,286.215 256.5,281.5C 255.5,281.5 254.5,281.5 253.5,281.5C 253.928,278.436 254.594,275.436 255.5,272.5C 257.167,272.5 258.833,272.5 260.5,272.5 Z"/></g>
<g><path style="opacity:1" fill="#7f5345" d="M 249.5,278.5 C 249.338,280.527 249.505,282.527 250,284.5C 251.299,284.966 252.799,284.966 254.5,284.5C 254.768,286.099 254.434,287.432 253.5,288.5C 252.25,288.577 251.417,289.244 251,290.5C 250.934,294.233 250.101,297.733 248.5,301C 249.749,301.74 250.749,301.573 251.5,300.5C 252.143,302.076 253.143,303.41 254.5,304.5C 253.167,305.5 251.833,306.5 250.5,307.5C 248.5,307.5 246.5,307.5 244.5,307.5C 243.833,307.5 243.5,307.167 243.5,306.5C 244.453,304.39 246.119,303.223 248.5,303C 247.552,302.517 246.552,302.351 245.5,302.5C 245.413,295.46 245.913,288.46 247,281.5C 247.852,280.429 248.685,279.429 249.5,278.5 Z"/></g>
<g><path style="opacity:1" fill="#6a4437" d="M 145.5,273.5 C 147.595,283.574 146.262,293.241 141.5,302.5C 138.827,302.316 138.16,301.149 139.5,299C 138.376,298.751 137.376,298.251 136.5,297.5C 139.466,297.128 141.8,295.795 143.5,293.5C 144.827,286.899 145.493,280.233 145.5,273.5 Z"/></g>
<g><path style="opacity:1" fill="#ddd9d8" d="M 0.5,-0.5 C 66.5,-0.5 132.5,-0.5 198.5,-0.5C 193.586,1.41229 189.919,4.74562 187.5,9.5C 186.094,9.97306 185.427,10.9731 185.5,12.5C 180.652,16.2449 178.652,21.2449 179.5,27.5C 179.249,30.408 177.916,32.5747 175.5,34C 177.923,36.9795 177.589,39.8128 174.5,42.5C 175.325,43.3857 176.325,43.719 177.5,43.5C 177.351,44.552 177.517,45.552 178,46.5C 181.066,49.3957 183.899,52.3957 186.5,55.5C 189.378,58.3655 188.711,60.1989 184.5,61C 186.112,61.7203 187.612,61.5536 189,60.5C 189.801,63.367 189.634,66.0336 188.5,68.5C 187.833,68.5 187.5,68.8333 187.5,69.5C 186.776,72.0826 185.943,74.7493 185,77.5C 182.937,79.7341 180.771,81.7341 178.5,83.5C 169.998,88.0876 161.332,92.0876 152.5,95.5C 150.243,95.9617 148.243,96.9617 146.5,98.5C 139.468,107.593 135.801,117.926 135.5,129.5C 132.375,138.448 130.708,147.781 130.5,157.5C 129.511,162.975 129.178,168.642 129.5,174.5C 127.455,179.973 126.455,185.64 126.5,191.5C 125.049,217.042 125.382,242.709 127.5,268.5C 126.752,276.822 126.085,285.155 125.5,293.5C 125.502,296.686 125.835,299.686 126.5,302.5C 128.493,304.163 130.826,305.33 133.5,306C 136.695,306.181 139.695,306.681 142.5,307.5C 142.992,357.782 142.992,408.115 142.5,458.5C 142.411,468.189 142.244,477.856 142,487.5C 143.488,489.16 145.321,490.16 147.5,490.5C 147.385,492.947 146.385,494.947 144.5,496.5C 143.153,495.829 141.986,495.829 141,496.5C 140.517,495.552 140.351,494.552 140.5,493.5C 136.19,492.92 131.857,492.586 127.5,492.5C 127.5,491.167 127.5,489.833 127.5,488.5C 125.738,488.643 124.071,488.309 122.5,487.5C 120.5,489.167 118.5,490.833 116.5,492.5C 112.167,489.833 107.833,489.833 103.5,492.5C 102.833,491.833 102.167,491.167 101.5,490.5C 100.646,491.522 99.646,492.355 98.5,493C 94.4862,493.499 90.4862,493.333 86.5,492.5C 83.5881,492.928 80.7548,493.595 78,494.5C 60.1951,494.462 42.3618,494.295 24.5,494C 22.1093,493.713 19.7759,493.213 17.5,492.5C 16.6143,491.675 16.281,490.675 16.5,489.5C 15.1667,489.5 13.8333,489.5 12.5,489.5C 12.5,490.5 12.5,491.5 12.5,492.5C 13.675,492.281 14.675,492.614 15.5,493.5C 12.2976,494.047 9.29762,495.047 6.5,496.5C 5.61432,495.675 5.28099,494.675 5.5,493.5C 3.83333,493.5 2.16667,493.5 0.5,493.5C 0.380031,438.496 0.713365,383.496 1.5,328.5C 3.5273,328.662 5.5273,328.495 7.5,328C 8.66816,326.594 8.33482,325.428 6.5,324.5C 9.76829,323.513 13.1016,323.18 16.5,323.5C 16.2837,321.319 17.117,319.653 19,318.5C 20.8138,319.76 22.6471,319.76 24.5,318.5C 24.6335,314.359 24.3002,310.192 23.5,306C 28.5996,305.275 33.2663,306.442 37.5,309.5C 40,307.167 42.5,304.833 45,302.5C 45.4828,301.552 45.6495,300.552 45.5,299.5C 46.5,299.5 47.5,299.5 48.5,299.5C 48.33,300.822 48.6634,301.989 49.5,303C 52.146,303.497 54.8127,303.664 57.5,303.5C 57.0962,297.71 57.5962,292.044 59,286.5C 59.1816,289.226 59.6816,291.893 60.5,294.5C 61.8333,282.5 63.1667,282.5 64.5,294.5C 65.48,291.914 65.8134,289.247 65.5,286.5C 71.1667,286.5 76.8333,286.5 82.5,286.5C 82.6641,283.813 82.4974,281.146 82,278.5C 80.9326,277.809 79.7659,277.309 78.5,277C 83.6282,275.438 83.6282,274.105 78.5,273C 79.7659,272.691 80.9326,272.191 82,271.5C 82.8795,266.601 85.2129,262.601 89,259.5C 91.9353,261.192 95.1019,261.858 98.5,261.5C 98.5,258.5 98.5,255.5 98.5,252.5C 97.1667,252.5 95.8333,252.5 94.5,252.5C 94.5,249.833 94.5,247.167 94.5,244.5C 93.5,244.5 92.5,244.5 91.5,244.5C 91.281,243.325 91.6143,242.325 92.5,241.5C 96.1588,244.812 98.8255,248.812 100.5,253.5C 101.425,254.641 102.259,254.641 103,253.5C 103.667,252.167 103.667,250.833 103,249.5C 100.618,245.434 97.7843,241.601 94.5,238C 95.7932,237.51 97.1266,237.343 98.5,237.5C 99.0235,231.813 99.6902,226.146 100.5,220.5C 101.833,220.5 103.167,220.5 104.5,220.5C 104.5,223.167 104.5,225.833 104.5,228.5C 105.5,228.5 106.5,228.5 107.5,228.5C 107.666,224.486 107.499,220.486 107,216.5C 104.595,215.726 102.095,215.226 99.5,215C 98.6198,213.644 98.2865,212.144 98.5,210.5C 101.29,210.222 103.79,210.889 106,212.5C 107.059,212.37 107.892,211.87 108.5,211C 107.5,209.333 106.167,208 104.5,207C 105.91,206.632 106.91,205.799 107.5,204.5C 105.002,203.062 102.836,203.396 101,205.5C 100.825,201.789 100.325,198.122 99.5,194.5C 98.0035,198.335 97.0035,198.335 96.5,194.5C 95.1667,194.5 93.8333,194.5 92.5,194.5C 92.719,195.675 92.3857,196.675 91.5,197.5C 90.5713,196.311 90.238,194.978 90.5,193.5C 93.1667,193.5 95.8333,193.5 98.5,193.5C 98.5,191.167 98.5,188.833 98.5,186.5C 95.8333,186.5 93.1667,186.5 90.5,186.5C 90.5,183.833 90.5,181.167 90.5,178.5C 89.1667,178.5 87.8333,178.5 86.5,178.5C 86.5,175.833 86.5,173.167 86.5,170.5C 85.1667,170.5 83.8333,170.5 82.5,170.5C 82.8066,164.907 82.4732,159.407 81.5,154C 76.1771,153.501 70.8437,153.334 65.5,153.5C 65.7733,151.549 65.1066,150.049 63.5,149C 66.0184,147.498 68.5184,145.998 71,144.5C 72.3159,147.028 73.4826,147.028 74.5,144.5C 72.0221,142.564 72.0221,140.564 74.5,138.5C 72.9928,137.261 71.8261,137.595 71,139.5C 68.5657,137.977 65.899,136.977 63,136.5C 60.5183,137.624 60.0183,139.29 61.5,141.5C 60.5089,142.665 59.5089,143.832 58.5,145C 59.1476,146.44 59.4809,147.94 59.5,149.5C 56.4509,148.643 53.4509,148.643 50.5,149.5C 49.5713,148.311 49.238,146.978 49.5,145.5C 48.1667,145.5 46.8333,145.5 45.5,145.5C 45.5,141.5 45.5,137.5 45.5,133.5C 46.8333,133.5 48.1667,133.5 49.5,133.5C 49.7135,131.856 49.3802,130.356 48.5,129C 44.8484,128.501 41.1817,128.335 37.5,128.5C 37.5,125.167 35.8333,123.5 32.5,123.5C 32.8588,121.234 32.1922,119.401 30.5,118C 31.7932,117.51 33.1266,117.343 34.5,117.5C 34.238,118.978 34.5713,120.311 35.5,121.5C 35.8333,120.667 36.1667,119.833 36.5,119C 34.7223,115.621 33.389,112.121 32.5,108.5C 28.4659,108.495 24.4659,108.162 20.5,107.5C 20.8333,104.5 19.5,103.167 16.5,103.5C 16.7683,100.881 16.435,98.3806 15.5,96C 12.1392,95.6633 8.80584,95.1633 5.5,94.5C 4.44606,94.6799 3.44606,95.0133 2.5,95.5C 0.833686,63.5234 0.167019,31.5234 0.5,-0.5 Z"/></g>
<g><path style="opacity:1" fill="#976858" d="M 255.5,269.5 C 256.802,271.028 258.469,272.028 260.5,272.5C 258.833,272.5 257.167,272.5 255.5,272.5C 254.594,275.436 253.928,278.436 253.5,281.5C 254.5,281.5 255.5,281.5 256.5,281.5C 255.962,286.215 256.962,290.548 259.5,294.5C 257.444,297.686 255.778,301.019 254.5,304.5C 253.143,303.41 252.143,302.076 251.5,300.5C 253.252,296.773 253.919,292.773 253.5,288.5C 254.434,287.432 254.768,286.099 254.5,284.5C 252.799,284.966 251.299,284.966 250,284.5C 249.505,282.527 249.338,280.527 249.5,278.5C 250.167,277.167 250.833,275.833 251.5,274.5C 253.539,273.328 254.872,271.662 255.5,269.5 Z"/></g>
<g><path style="opacity:1" fill="#272528" d="M 144.5,305.5 C 145.272,306.694 146.272,307.694 147.5,308.5C 148.381,313.124 149.048,317.79 149.5,322.5C 147.018,331.208 147.018,339.874 149.5,348.5C 149.363,350.107 148.696,351.441 147.5,352.5C 146.451,362.974 145.785,373.474 145.5,384C 145.758,408.926 145.924,434.093 146,459.5C 145.667,463.5 145.333,467.5 145,471.5C 144.24,467.012 143.406,462.678 142.5,458.5C 142.992,408.115 142.992,357.782 142.5,307.5C 143.833,307.5 144.5,306.833 144.5,305.5 Z"/></g>
<g><path style="opacity:1" fill="#7c7b7d" d="M 193.5,309.5 C 193.56,308.957 193.893,308.624 194.5,308.5C 195.48,311.086 195.813,313.753 195.5,316.5C 194.833,314.167 194.167,311.833 193.5,309.5 Z"/></g>
<g><path style="opacity:1" fill="#313033" d="M 243.5,306.5 C 243.5,307.167 243.833,307.5 244.5,307.5C 242.614,322.65 240.614,337.65 238.5,352.5C 237.962,338.128 237.462,323.795 237,309.5C 237.741,308.359 238.575,308.359 239.5,309.5C 240.569,308.09 241.903,307.09 243.5,306.5 Z"/></g>
<g><path style="opacity:1" fill="#dad6d5" d="M 193.5,309.5 C 194.167,311.833 194.833,314.167 195.5,316.5C 195.963,319.482 196.296,322.482 196.5,325.5C 199.491,343.406 201.157,361.406 201.5,379.5C 200.508,386.648 200.175,393.981 200.5,401.5C 200.499,424.185 199.833,446.852 198.5,469.5C 198.667,473.167 198.833,476.833 199,480.5C 200.011,481.337 201.178,481.67 202.5,481.5C 202.5,483.167 202.5,484.833 202.5,486.5C 200.469,492.297 198.802,498.297 197.5,504.5C 196.539,506.265 196.205,508.265 196.5,510.5C 194.519,512.144 192.519,513.81 190.5,515.5C 186.349,514.801 182.182,514.134 178,513.5C 177.035,513.93 176.535,514.596 176.5,515.5C 175.883,515.389 175.383,515.056 175,514.5C 174.75,508.192 173.583,502.192 171.5,496.5C 171.5,495.833 171.167,495.5 170.5,495.5C 173.996,452.922 176.496,410.255 178,367.5C 180.128,359.574 181.961,351.574 183.5,343.5C 186.902,333.626 189.902,323.626 192.5,313.5C 192.833,312.167 193.167,310.833 193.5,309.5 Z"/></g>
<g><path style="opacity:1" fill="#212125" d="M 196.5,325.5 C 198.849,332.09 200.349,338.756 201,345.5C 203.184,346.108 205.184,345.441 207,343.5C 207.592,346.694 207.426,349.861 206.5,353C 209.084,359.254 210.751,365.754 211.5,372.5C 211.353,375.11 210.519,377.444 209,379.5C 206.77,378.511 204.936,379.178 203.5,381.5C 202.818,380.757 202.151,380.091 201.5,379.5C 201.157,361.406 199.491,343.406 196.5,325.5 Z"/></g>
<g><path style="opacity:1" fill="#1d1d20" d="M 183.5,343.5 C 181.961,351.574 180.128,359.574 178,367.5C 176.496,410.255 173.996,452.922 170.5,495.5C 169.549,494.081 169.216,492.415 169.5,490.5C 168.5,490.5 167.5,490.5 166.5,490.5C 166.66,485.434 166.16,480.434 165,475.5C 164.333,476.167 163.667,476.833 163,477.5C 162.24,468.975 162.407,460.475 163.5,452C 159.846,443.437 159.512,434.77 162.5,426C 160.084,422.195 159.751,418.528 161.5,415C 159.846,413.096 159.513,411.096 160.5,409C 159.915,398.783 158.915,388.616 157.5,378.5C 158.391,377.41 159.391,377.41 160.5,378.5C 161.537,384.239 162.87,389.905 164.5,395.5C 165.539,397.531 167.205,398.864 169.5,399.5C 169.833,398.833 170.167,398.167 170.5,397.5C 169.892,394.855 169.392,392.188 169,389.5C 166.883,381.817 164.383,374.317 161.5,367C 161.844,365.635 162.511,364.468 163.5,363.5C 163.291,362.914 162.957,362.414 162.5,362C 163.891,360.98 165.391,360.147 167,359.5C 168.218,356.685 169.718,354.019 171.5,351.5C 170.689,350.784 170.022,349.95 169.5,349C 170.952,347.435 172.619,346.102 174.5,345C 174.043,344.586 173.709,344.086 173.5,343.5C 174.999,341.198 176.332,341.531 177.5,344.5C 178.192,343.975 178.692,343.308 179,342.5C 179.433,350.336 180.433,350.336 182,342.5C 182.383,343.056 182.883,343.389 183.5,343.5 Z"/></g>
<g><path style="opacity:1" fill="#1b1b1f" d="M 147.5,490.5 C 145.321,490.16 143.488,489.16 142,487.5C 142.244,477.856 142.411,468.189 142.5,458.5C 143.406,462.678 144.24,467.012 145,471.5C 145.333,467.5 145.667,463.5 146,459.5C 145.924,434.093 145.758,408.926 145.5,384C 145.785,373.474 146.451,362.974 147.5,352.5C 148.696,351.441 149.363,350.107 149.5,348.5C 147.018,339.874 147.018,331.208 149.5,322.5C 149.048,317.79 148.381,313.124 147.5,308.5C 148.234,307.122 148.901,305.622 149.5,304C 152.232,303.095 152.899,303.762 151.5,306C 152.832,308.982 154.165,311.982 155.5,315C 154.046,323.604 153.38,332.271 153.5,341C 154.376,342.586 155.376,344.086 156.5,345.5C 153.934,346.279 151.934,347.779 150.5,350C 151.624,350.249 152.624,350.749 153.5,351.5C 152.585,352.328 151.919,353.328 151.5,354.5C 152.167,357.167 152.833,359.833 153.5,362.5C 153.132,363.91 152.299,364.91 151,365.5C 151.018,370.069 150.185,374.403 148.5,378.5C 150.078,379.298 151.744,379.798 153.5,380C 154.167,381.333 154.833,382.667 155.5,384C 153.953,387.098 153.286,390.431 153.5,394C 154.699,399.343 154.366,404.51 152.5,409.5C 154.932,420.485 153.932,431.318 149.5,442C 149.706,443.865 150.372,445.532 151.5,447C 150.299,449.234 148.965,451.401 147.5,453.5C 149.051,455.327 150.051,457.494 150.5,460C 149.499,462.834 148.499,465.667 147.5,468.5C 148.705,470.121 148.539,471.454 147,472.5C 146.254,478.551 146.421,484.551 147.5,490.5 Z"/></g>
<g><path style="opacity:1" fill="#323133" d="M 238.5,360.5 C 236.874,391.219 233.207,421.552 227.5,451.5C 228.006,447.993 227.34,444.826 225.5,442C 227.438,438.837 228.438,435.337 228.5,431.5C 229.807,427.076 230.807,422.576 231.5,418C 231.233,414.297 230.233,410.797 228.5,407.5C 229.743,405.408 231.243,403.408 233,401.5C 232.28,391.694 231.114,381.861 229.5,372C 230.735,366.654 233.735,362.821 238.5,360.5 Z"/></g>
<g><path style="opacity:1" fill="#312f33" d="M 200.5,401.5 C 202.122,422.349 203.788,443.349 205.5,464.5C 204.927,471.858 204.26,479.191 203.5,486.5C 204.959,486.567 206.292,486.234 207.5,485.5C 207.5,486.5 207.5,487.5 207.5,488.5C 206.624,488.369 205.957,488.702 205.5,489.5C 206.778,491.722 207.778,494.056 208.5,496.5C 207.85,501.015 206.184,501.515 203.5,498C 204.097,496.938 204.43,495.772 204.5,494.5C 203.345,491.989 202.678,489.322 202.5,486.5C 202.5,484.833 202.5,483.167 202.5,481.5C 201.178,481.67 200.011,481.337 199,480.5C 198.833,476.833 198.667,473.167 198.5,469.5C 199.833,446.852 200.499,424.185 200.5,401.5 Z"/></g>
<g><path style="opacity:1" fill="#d6d2d2" d="M 411.5,487.5 C 411.5,504.833 411.5,522.167 411.5,539.5C 331.833,539.5 252.167,539.5 172.5,539.5C 175.187,534.771 176.854,529.771 177.5,524.5C 177.632,521.43 177.299,518.43 176.5,515.5C 176.535,514.596 177.035,513.93 178,513.5C 182.182,514.134 186.349,514.801 190.5,515.5C 192.519,513.81 194.519,512.144 196.5,510.5C 196.338,512.527 196.505,514.527 197,516.5C 197.333,515.5 197.667,514.5 198,513.5C 199.629,518.638 201.629,523.638 204,528.5C 205.255,529.211 206.421,530.044 207.5,531C 216.756,531.127 225.922,531.96 235,533.5C 237.198,530.061 238.698,526.394 239.5,522.5C 239.5,521.833 239.5,521.167 239.5,520.5C 238.579,513.99 235.579,508.657 230.5,504.5C 230.5,503.167 229.833,502.5 228.5,502.5C 226.47,499.894 224.803,497.061 223.5,494C 223.966,492.701 223.966,491.201 223.5,489.5C 225.067,490.681 225.901,492.347 226,494.5C 226.401,492.479 227.568,491.145 229.5,490.5C 232.361,492.98 235.694,493.98 239.5,493.5C 239.5,494.5 239.5,495.5 239.5,496.5C 243.025,496.785 246.358,496.119 249.5,494.5C 253.317,496.196 257.317,496.863 261.5,496.5C 261.782,501.579 262.782,501.746 264.5,497C 266.81,496.503 269.143,496.337 271.5,496.5C 270.832,492.487 272.499,490.487 276.5,490.5C 281.064,491.947 285.731,492.613 290.5,492.5C 290.5,491.167 290.5,489.833 290.5,488.5C 291.833,488.5 293.167,488.5 294.5,488.5C 294.238,489.978 294.571,491.311 295.5,492.5C 296.043,488.64 297.543,485.306 300,482.5C 301.444,484.155 303.278,484.822 305.5,484.5C 305.5,486.833 305.5,489.167 305.5,491.5C 308.167,491.5 310.833,491.5 313.5,491.5C 313.5,489.167 313.5,486.833 313.5,484.5C 316.167,484.5 318.833,484.5 321.5,484.5C 321.917,487.343 322.917,490.01 324.5,492.5C 325.429,491.311 325.762,489.978 325.5,488.5C 326.5,488.5 327.5,488.5 328.5,488.5C 328.343,489.873 328.51,491.207 329,492.5C 329.067,488.569 330.4,485.236 333,482.5C 333.5,483 334,483.5 334.5,484C 342.493,484.5 350.493,484.666 358.5,484.5C 358.5,486.5 358.5,488.5 358.5,490.5C 359.833,490.5 361.167,490.5 362.5,490.5C 362.5,488.5 362.5,486.5 362.5,484.5C 366.03,485.011 369.196,484.344 372,482.5C 374.174,484.176 376.674,485.176 379.5,485.5C 383.213,484.061 387.047,483.061 391,482.5C 393.951,482.883 396.785,483.549 399.5,484.5C 399.238,485.978 399.571,487.311 400.5,488.5C 403.378,490.106 406.378,491.439 409.5,492.5C 410.17,490.709 410.837,489.042 411.5,487.5 Z"/></g>
<g><path style="opacity:1" fill="#202024" d="M 228.5,431.5 C 228.438,435.337 227.438,438.837 225.5,442C 227.34,444.826 228.006,447.993 227.5,451.5C 225.844,461.434 224.844,471.434 224.5,481.5C 223.5,481.5 222.5,481.5 221.5,481.5C 221.694,484.33 222.361,486.996 223.5,489.5C 223.966,491.201 223.966,492.701 223.5,494C 224.803,497.061 226.47,499.894 228.5,502.5C 225.737,502.256 223.571,500.923 222,498.5C 221.502,501.817 221.335,505.15 221.5,508.5C 221.511,510.017 222.177,511.184 223.5,512C 222.552,512.483 221.552,512.649 220.5,512.5C 218.858,510.919 216.858,510.253 214.5,510.5C 214.193,507.365 212.86,504.698 210.5,502.5C 211.253,500.247 212.586,498.413 214.5,497C 211.041,497.734 210.707,496.734 213.5,494C 212.451,493.508 211.451,493.674 210.5,494.5C 209.289,493.726 209.289,492.893 210.5,492C 209.186,491.015 208.186,489.848 207.5,488.5C 207.5,487.5 207.5,486.5 207.5,485.5C 209.084,484.231 210.917,483.231 213,482.5C 214.326,482.755 215.326,483.422 216,484.5C 216.483,483.552 216.649,482.552 216.5,481.5C 217.552,481.649 218.552,481.483 219.5,481C 219.523,478.568 219.19,476.068 218.5,473.5C 219.229,471.024 219.896,468.524 220.5,466C 219.863,464.287 218.863,464.121 217.5,465.5C 216.117,462.924 215.283,463.258 215,466.5C 214.333,463.833 214.333,461.167 215,458.5C 219.615,449.44 224.115,440.44 228.5,431.5 Z"/></g>
<g><path style="opacity:1" fill="#5f5d62" d="M 202.5,486.5 C 202.678,489.322 203.345,491.989 204.5,494.5C 204.43,495.772 204.097,496.938 203.5,498C 206.184,501.515 207.85,501.015 208.5,496.5C 207.778,494.056 206.778,491.722 205.5,489.5C 205.957,488.702 206.624,488.369 207.5,488.5C 208.186,489.848 209.186,491.015 210.5,492C 209.289,492.893 209.289,493.726 210.5,494.5C 211.451,493.674 212.451,493.508 213.5,494C 210.707,496.734 211.041,497.734 214.5,497C 212.586,498.413 211.253,500.247 210.5,502.5C 212.86,504.698 214.193,507.365 214.5,510.5C 216.858,510.253 218.858,510.919 220.5,512.5C 218.349,514.289 215.849,515.622 213,516.5C 209.945,510.069 206.111,504.069 201.5,498.5C 200.738,499.628 200.071,500.795 199.5,502C 200.5,503 201.5,504 202.5,505C 199.307,506.026 197.974,508.192 198.5,511.5C 197.532,509.393 197.198,507.059 197.5,504.5C 198.802,498.297 200.469,492.297 202.5,486.5 Z"/></g>
<g><path style="opacity:1" fill="#201f23" d="M 171.5,496.5 C 173.583,502.192 174.75,508.192 175,514.5C 175.383,515.056 175.883,515.389 176.5,515.5C 177.299,518.43 177.632,521.43 177.5,524.5C 176.317,525.504 174.984,526.338 173.5,527C 166.525,528.774 159.525,530.44 152.5,532C 149.808,535.548 146.475,538.048 142.5,539.5C 132.5,539.5 122.5,539.5 112.5,539.5C 112.5,538.833 112.167,538.5 111.5,538.5C 111.34,536.801 111.506,535.134 112,533.5C 114.46,532.042 116.627,530.209 118.5,528C 121.579,527.027 124.579,526.194 127.5,525.5C 130.257,524.138 132.924,522.638 135.5,521C 134.464,519.224 134.464,517.391 135.5,515.5C 136.622,513.948 137.122,512.282 137,510.5C 135.549,512.464 133.716,513.797 131.5,514.5C 133.871,509.945 136.538,505.612 139.5,501.5C 139.383,503.484 140.05,505.15 141.5,506.5C 143.709,507.106 145.876,507.773 148,508.5C 147.406,506.491 147.573,504.491 148.5,502.5C 150.611,501.152 152.445,501.485 154,503.5C 154.507,502.004 154.007,500.837 152.5,500C 154.235,499.349 155.902,499.515 157.5,500.5C 158.23,501.934 159.23,503.1 160.5,504C 167.271,505.953 170.938,503.453 171.5,496.5 Z"/></g>
<g><path style="opacity:1" fill="#949397" d="M 228.5,502.5 C 229.833,502.5 230.5,503.167 230.5,504.5C 229.883,504.389 229.383,504.056 229,503.5C 228.694,505.906 227.861,508.073 226.5,510C 227.932,511.756 229.599,513.256 231.5,514.5C 229.883,513.962 228.216,513.629 226.5,513.5C 225.5,511.167 223.833,509.5 221.5,508.5C 221.335,505.15 221.502,501.817 222,498.5C 223.571,500.923 225.737,502.256 228.5,502.5 Z"/></g>
<g><path style="opacity:1" fill="#3a373c" d="M 220.5,512.5 C 221.552,512.649 222.552,512.483 223.5,512C 222.177,511.184 221.511,510.017 221.5,508.5C 223.833,509.5 225.5,511.167 226.5,513.5C 220.996,514.286 217.33,516.786 215.5,521C 214.027,521.71 213.36,522.876 213.5,524.5C 215.308,524.491 216.975,524.991 218.5,526C 217.944,526.383 217.611,526.883 217.5,527.5C 211.098,526.268 207.764,522.435 207.5,516C 204.16,514.997 201.16,513.497 198.5,511.5C 197.974,508.192 199.307,506.026 202.5,505C 201.5,504 200.5,503 199.5,502C 200.071,500.795 200.738,499.628 201.5,498.5C 206.111,504.069 209.945,510.069 213,516.5C 215.849,515.622 218.349,514.289 220.5,512.5 Z"/></g>
<g><path style="opacity:1" fill="#d4d2d1" d="M 144.5,496.5 C 142.162,497.51 140.496,499.177 139.5,501.5C 136.538,505.612 133.871,509.945 131.5,514.5C 127.916,518.304 123.583,521.137 118.5,523C 116.859,524.129 115.859,525.629 115.5,527.5C 114.239,529.29 112.739,530.957 111,532.5C 110.211,534.712 110.378,536.712 111.5,538.5C 112.167,538.5 112.5,538.833 112.5,539.5C 75.1667,539.5 37.8333,539.5 0.5,539.5C 0.5,524.167 0.5,508.833 0.5,493.5C 2.16667,493.5 3.83333,493.5 5.5,493.5C 5.28099,494.675 5.61432,495.675 6.5,496.5C 9.29762,495.047 12.2976,494.047 15.5,493.5C 14.675,492.614 13.675,492.281 12.5,492.5C 12.5,491.5 12.5,490.5 12.5,489.5C 13.8333,489.5 15.1667,489.5 16.5,489.5C 16.281,490.675 16.6143,491.675 17.5,492.5C 19.7759,493.213 22.1093,493.713 24.5,494C 42.3618,494.295 60.1951,494.462 78,494.5C 80.7548,493.595 83.5881,492.928 86.5,492.5C 90.4862,493.333 94.4862,493.499 98.5,493C 99.646,492.355 100.646,491.522 101.5,490.5C 102.167,491.167 102.833,491.833 103.5,492.5C 107.833,489.833 112.167,489.833 116.5,492.5C 118.5,490.833 120.5,489.167 122.5,487.5C 124.071,488.309 125.738,488.643 127.5,488.5C 127.5,489.833 127.5,491.167 127.5,492.5C 131.857,492.586 136.19,492.92 140.5,493.5C 140.351,494.552 140.517,495.552 141,496.5C 141.986,495.829 143.153,495.829 144.5,496.5 Z"/></g>
<g><path style="opacity:1" fill="#adacae" d="M 230.5,504.5 C 235.579,508.657 238.579,513.99 239.5,520.5C 238.883,520.611 238.383,520.944 238,521.5C 237.29,520.027 236.124,519.36 234.5,519.5C 234.727,517.067 233.727,515.401 231.5,514.5C 229.599,513.256 227.932,511.756 226.5,510C 227.861,508.073 228.694,505.906 229,503.5C 229.383,504.056 229.883,504.389 230.5,504.5 Z"/></g>
<g><path style="opacity:1" fill="#b4b1b1" d="M 197.5,504.5 C 197.198,507.059 197.532,509.393 198.5,511.5C 201.16,513.497 204.16,514.997 207.5,516C 207.764,522.435 211.098,526.268 217.5,527.5C 223.067,528.804 228.734,528.804 234.5,527.5C 237.2,526.8 238.867,525.134 239.5,522.5C 238.698,526.394 237.198,530.061 235,533.5C 225.922,531.96 216.756,531.127 207.5,531C 206.421,530.044 205.255,529.211 204,528.5C 201.629,523.638 199.629,518.638 198,513.5C 197.667,514.5 197.333,515.5 197,516.5C 196.505,514.527 196.338,512.527 196.5,510.5C 196.205,508.265 196.539,506.265 197.5,504.5 Z"/></g>
<g><path style="opacity:1" fill="#37363a" d="M 226.5,513.5 C 228.216,513.629 229.883,513.962 231.5,514.5C 233.727,515.401 234.727,517.067 234.5,519.5C 236.124,519.36 237.29,520.027 238,521.5C 238.383,520.944 238.883,520.611 239.5,520.5C 239.5,521.167 239.5,521.833 239.5,522.5C 238.867,525.134 237.2,526.8 234.5,527.5C 235.682,525.997 236.182,524.33 236,522.5C 233.991,520.99 232.158,519.323 230.5,517.5C 229.614,518.325 229.281,519.325 229.5,520.5C 228.167,520.5 226.833,520.5 225.5,520.5C 225.178,518.278 225.845,516.444 227.5,515C 226.944,514.617 226.611,514.117 226.5,513.5 Z"/></g>
<g><path style="opacity:1" fill="#aeadb0" d="M 135.5,515.5 C 132.658,518.689 129.991,522.022 127.5,525.5C 123.295,525.191 119.295,525.857 115.5,527.5C 115.859,525.629 116.859,524.129 118.5,523C 123.583,521.137 127.916,518.304 131.5,514.5C 133.716,513.797 135.549,512.464 137,510.5C 137.122,512.282 136.622,513.948 135.5,515.5 Z"/></g>
<g><path style="opacity:1" fill="#1e1d20" d="M 226.5,513.5 C 226.611,514.117 226.944,514.617 227.5,515C 225.845,516.444 225.178,518.278 225.5,520.5C 226.833,520.5 228.167,520.5 229.5,520.5C 229.281,519.325 229.614,518.325 230.5,517.5C 232.158,519.323 233.991,520.99 236,522.5C 236.182,524.33 235.682,525.997 234.5,527.5C 228.734,528.804 223.067,528.804 217.5,527.5C 217.611,526.883 217.944,526.383 218.5,526C 216.975,524.991 215.308,524.491 213.5,524.5C 213.36,522.876 214.027,521.71 215.5,521C 217.33,516.786 220.996,514.286 226.5,513.5 Z"/></g>
<g><path style="opacity:1" fill="#646468" d="M 135.5,515.5 C 134.464,517.391 134.464,519.224 135.5,521C 132.924,522.638 130.257,524.138 127.5,525.5C 129.991,522.022 132.658,518.689 135.5,515.5 Z"/></g>
<g><path style="opacity:1" fill="#4e4d4f" d="M 127.5,525.5 C 124.579,526.194 121.579,527.027 118.5,528C 116.627,530.209 114.46,532.042 112,533.5C 111.506,535.134 111.34,536.801 111.5,538.5C 110.378,536.712 110.211,534.712 111,532.5C 112.739,530.957 114.239,529.29 115.5,527.5C 119.295,525.857 123.295,525.191 127.5,525.5 Z"/></g>
<g><path style="opacity:1" fill="#b7b4b3" d="M 177.5,524.5 C 176.854,529.771 175.187,534.771 172.5,539.5C 162.5,539.5 152.5,539.5 142.5,539.5C 146.475,538.048 149.808,535.548 152.5,532C 159.525,530.44 166.525,528.774 173.5,527C 174.984,526.338 176.317,525.504 177.5,524.5 Z"/></g>
</svg>
