<svg width="131" height="69" viewBox="0 0 131 69" fill="none" xmlns="http://www.w3.org/2000/svg">
<path d="M28.88 15.8796V30H22.7851V15.8796H16.5522V11.0257H35.0853V15.8796H28.88ZM37.8343 30V11.0257H43.9293V30H37.8343ZM64.2735 30V23.1604C64.2735 22.3147 64.3011 21.4505 64.3562 20.568C64.4298 19.6671 64.5033 18.9133 64.5769 18.3065C64.6504 17.6998 64.6964 17.3137 64.7148 17.1482H64.6044L61.1019 30H56.3308L52.8006 17.1758H52.6903C52.7087 17.3413 52.7547 17.7274 52.8282 18.3341C52.9202 18.9225 53.0029 19.6671 53.0764 20.568C53.15 21.4505 53.1868 22.3147 53.1868 23.1604V30H47.5882V11.0257H56.1929L59.0611 21.9745H59.1714L62.012 11.0257H70.3133V30H64.2735ZM86.3459 11.0257C87.302 11.0257 88.1753 11.2279 88.9659 11.6324C89.7749 12.0185 90.4092 12.5701 90.8689 13.2872C91.3469 14.0042 91.5859 14.804 91.5859 15.6865C91.5859 18.0215 90.5287 19.4924 88.4143 20.0992V20.2095C90.8229 20.7611 92.0272 22.3422 92.0272 24.9531C92.0272 25.9459 91.779 26.8284 91.2825 27.6006C90.8045 28.3545 90.1426 28.9428 89.2969 29.3657C88.4511 29.7886 87.5226 30 86.5114 30H73.7148V11.0257H86.3459ZM79.8097 18.4168H84.0017C84.4062 18.4168 84.7371 18.2789 84.9945 18.0032C85.2703 17.709 85.4082 17.3505 85.4082 16.9276V16.6518C85.4082 16.2473 85.2703 15.9072 84.9945 15.6314C84.7188 15.3372 84.3878 15.1901 84.0017 15.1901H79.8097V18.4168ZM79.8097 25.5874H84.443C84.8475 25.5874 85.1784 25.4495 85.4358 25.1737C85.7116 24.8795 85.8495 24.521 85.8495 24.0981V23.8223C85.8495 23.3994 85.7116 23.0501 85.4358 22.7743C85.1784 22.4801 84.8475 22.3331 84.443 22.3331H79.8097V25.5874ZM113.041 22.3606C113.041 24.9531 112.223 26.9295 110.587 28.2901C108.95 29.6507 106.624 30.3309 103.609 30.3309C100.594 30.3309 98.2587 29.6507 96.604 28.2901C94.9676 26.9295 94.1495 24.9531 94.1495 22.3606V11.0257H100.244V22.2779C100.244 23.3443 100.529 24.1992 101.099 24.8427C101.669 25.4679 102.497 25.7804 103.581 25.7804C104.666 25.7804 105.494 25.4587 106.064 24.8152C106.652 24.1716 106.946 23.3259 106.946 22.2779V11.0257H113.041V22.3606Z" fill="black"/>
<path d="M9.75637 57.8178C8.24872 57.8178 6.90655 57.45 5.72985 56.7146C4.55314 55.9608 3.62465 54.8852 2.94437 53.4879C2.26409 52.0721 1.92395 50.3898 1.92395 48.4409C1.92395 46.97 2.117 45.6646 2.50311 44.5247C2.9076 43.3664 3.46837 42.3736 4.18542 41.5462C4.92086 40.7188 5.76662 40.0937 6.72269 39.6708C7.69714 39.2479 8.75434 39.0365 9.89427 39.0365C10.9974 39.0365 11.9627 39.2663 12.7901 39.726C13.6358 40.1672 14.3069 40.6729 14.8033 41.2428L13.6726 42.5942C13.1945 42.061 12.643 41.6381 12.0178 41.3256C11.4111 40.9946 10.7124 40.8291 9.92185 40.8291C8.74514 40.8291 7.71553 41.1417 6.833 41.7668C5.95048 42.3736 5.261 43.2469 4.76458 44.3868C4.28655 45.5084 4.04753 46.8413 4.04753 48.3858C4.04753 49.9486 4.27735 51.2999 4.737 52.4399C5.21504 53.5798 5.88613 54.4623 6.75027 55.0874C7.63279 55.7126 8.66241 56.0251 9.83911 56.0251C10.74 56.0251 11.5306 55.8413 12.2109 55.4736C12.9096 55.1058 13.5531 54.591 14.1414 53.9291L15.2722 55.1978C14.5735 56.0251 13.7737 56.6686 12.8728 57.1283C11.9719 57.5879 10.9331 57.8178 9.75637 57.8178ZM20.4111 57.8178C19.9147 57.8178 19.501 57.7074 19.1701 57.4868C18.8391 57.2846 18.6001 56.9812 18.453 56.5767C18.3059 56.1538 18.2324 55.639 18.2324 55.0323V37.7954H20.2181V55.1978C20.2181 55.5287 20.2824 55.7677 20.4111 55.9148C20.5398 56.0619 20.6869 56.1354 20.8524 56.1354C20.9075 56.1354 20.9719 56.1354 21.0454 56.1354C21.119 56.1171 21.2201 56.0987 21.3488 56.0803L21.6246 57.6247C21.4775 57.6615 21.3028 57.6983 21.1006 57.735C20.9167 57.7902 20.6869 57.8178 20.4111 57.8178ZM29.9258 57.8178C28.8411 57.8178 27.8298 57.542 26.8922 56.9904C25.9545 56.4388 25.2007 55.6482 24.6307 54.6186C24.0607 53.5706 23.7757 52.302 23.7757 50.8127C23.7757 49.3234 24.0607 48.0548 24.6307 47.0068C25.2007 45.9588 25.9545 45.159 26.8922 44.6074C27.8298 44.0559 28.8411 43.7801 29.9258 43.7801C31.0106 43.7801 32.0127 44.0559 32.932 44.6074C33.8696 45.159 34.6235 45.9588 35.1934 47.0068C35.7818 48.0548 36.076 49.3234 36.076 50.8127C36.076 52.302 35.7818 53.5706 35.1934 54.6186C34.6235 55.6482 33.8696 56.4388 32.932 56.9904C32.0127 57.542 31.0106 57.8178 29.9258 57.8178ZM29.9258 56.1354C30.7348 56.1354 31.4427 55.9148 32.0494 55.4736C32.6745 55.0323 33.1526 54.4164 33.4835 53.6258C33.8329 52.8168 34.0075 51.8791 34.0075 50.8127C34.0075 49.7647 33.8329 48.8362 33.4835 48.0272C33.1526 47.2183 32.6745 46.5931 32.0494 46.1519C31.4427 45.6922 30.7348 45.4624 29.9258 45.4624C29.1352 45.4624 28.4274 45.6922 27.8023 46.1519C27.1955 46.5931 26.7175 47.2183 26.3682 48.0272C26.0372 48.8362 25.8717 49.7647 25.8717 50.8127C25.8717 51.8791 26.0372 52.8168 26.3682 53.6258C26.7175 54.4164 27.1955 55.0323 27.8023 55.4736C28.4274 55.9148 29.1352 56.1354 29.9258 56.1354ZM43.2751 57.8178C41.8962 57.8178 40.8758 57.3765 40.2139 56.494C39.552 55.6114 39.221 54.3152 39.221 52.6053V44.111H41.2067V52.3571C41.2067 53.6441 41.4182 54.591 41.841 55.1978C42.2639 55.7861 42.9442 56.0803 43.8819 56.0803C44.5805 56.0803 45.2149 55.8964 45.7848 55.5287C46.3548 55.1426 46.9707 54.5359 47.6326 53.7085V44.111H49.6459V57.4868H47.9636L47.7981 55.3632H47.7153C47.0902 56.0987 46.4283 56.6962 45.7297 57.1559C45.031 57.5971 44.2128 57.8178 43.2751 57.8178ZM58.4998 57.8178C56.8267 57.8178 55.4937 57.211 54.5008 55.9976C53.508 54.7657 53.0116 53.0374 53.0116 50.8127C53.0116 49.3786 53.2782 48.1376 53.8114 47.0896C54.363 46.0416 55.08 45.2326 55.9625 44.6626C56.8451 44.0743 57.8011 43.7801 58.8307 43.7801C59.6213 43.7801 60.3016 43.918 60.8716 44.1938C61.4415 44.4696 62.0299 44.8557 62.6366 45.3521L62.5539 43.0354V37.7954H64.5396V57.4868H62.8848L62.7194 55.8597H62.6366C62.1218 56.3929 61.5059 56.8525 60.7888 57.2386C60.0902 57.6247 59.3272 57.8178 58.4998 57.8178ZM58.9411 56.1079C59.5846 56.1079 60.2005 55.9516 60.7888 55.639C61.3772 55.3081 61.9655 54.83 62.5539 54.2049V46.9517C61.9472 46.4185 61.368 46.0416 60.8164 45.8209C60.2648 45.6003 59.7041 45.49 59.1341 45.49C58.3803 45.49 57.6908 45.7198 57.0657 46.1794C56.459 46.6207 55.9717 47.2458 55.604 48.0548C55.2547 48.8454 55.08 49.7647 55.08 50.8127C55.08 52.4491 55.411 53.7453 56.0728 54.7013C56.7531 55.639 57.7092 56.1079 58.9411 56.1079ZM79.2654 57.8178C77.9968 57.8178 76.8293 57.5696 75.7629 57.0731C74.6965 56.5767 73.768 55.924 72.9774 55.115L74.2185 53.7085C74.8804 54.4072 75.6434 54.9679 76.5075 55.3908C77.3901 55.8137 78.3186 56.0251 79.293 56.0251C80.5433 56.0251 81.5177 55.7401 82.2164 55.1702C82.9151 54.5818 83.2644 53.8188 83.2644 52.8811C83.2644 52.2376 83.1265 51.7228 82.8507 51.3367C82.5749 50.9322 82.2072 50.6013 81.7476 50.3439C81.2879 50.0681 80.7639 49.8015 80.1756 49.5441L77.5555 48.3858C77.004 48.1467 76.4432 47.8342 75.8732 47.4481C75.3033 47.062 74.8252 46.5747 74.4391 45.9864C74.0714 45.398 73.8875 44.6534 73.8875 43.7525C73.8875 42.8516 74.1266 42.0518 74.6046 41.3531C75.0826 40.6361 75.7445 40.0753 76.5903 39.6708C77.436 39.2479 78.3921 39.0365 79.4585 39.0365C80.5433 39.0365 81.5361 39.2479 82.437 39.6708C83.3563 40.0937 84.1193 40.6269 84.7261 41.2704L83.6229 42.5942C83.0897 42.0426 82.4738 41.6105 81.7751 41.298C81.0948 40.9854 80.3226 40.8291 79.4585 40.8291C78.4105 40.8291 77.5555 41.0865 76.8937 41.6013C76.2501 42.0978 75.9284 42.778 75.9284 43.6422C75.9284 44.2489 76.0847 44.7453 76.3972 45.1314C76.7098 45.5176 77.0959 45.8393 77.5555 46.0967C78.0336 46.3357 78.5024 46.5564 78.9621 46.7586L81.5821 47.9169C82.2991 48.2111 82.9334 48.5604 83.485 48.9649C84.0366 49.3694 84.4779 49.875 84.8088 50.4818C85.1581 51.0885 85.3328 51.8423 85.3328 52.7432C85.3328 53.6809 85.0846 54.5359 84.5882 55.3081C84.1101 56.0803 83.4115 56.6962 82.4922 57.1559C81.5913 57.5971 80.5157 57.8178 79.2654 57.8178ZM88.4568 57.4868V37.7954H90.4425V43.2561L90.3873 46.0691C91.0308 45.4256 91.7111 44.8832 92.4281 44.442C93.1452 44.0007 93.9542 43.7801 94.8551 43.7801C96.2708 43.7801 97.3004 44.2213 97.9439 45.1039C98.6058 45.9864 98.9368 47.2826 98.9368 48.9925V57.4868H96.9235V49.2407C96.9235 47.9537 96.7121 47.016 96.2892 46.4277C95.8847 45.8393 95.2136 45.5451 94.2759 45.5451C93.5773 45.5451 92.943 45.729 92.373 46.0967C91.803 46.446 91.1595 46.9792 90.4425 47.6963V57.4868H88.4568ZM108.149 57.8178C107.064 57.8178 106.053 57.542 105.116 56.9904C104.178 56.4388 103.424 55.6482 102.854 54.6186C102.284 53.5706 101.999 52.302 101.999 50.8127C101.999 49.3234 102.284 48.0548 102.854 47.0068C103.424 45.9588 104.178 45.159 105.116 44.6074C106.053 44.0559 107.064 43.7801 108.149 43.7801C109.234 43.7801 110.236 44.0559 111.155 44.6074C112.093 45.159 112.847 45.9588 113.417 47.0068C114.005 48.0548 114.299 49.3234 114.299 50.8127C114.299 52.302 114.005 53.5706 113.417 54.6186C112.847 55.6482 112.093 56.4388 111.155 56.9904C110.236 57.542 109.234 57.8178 108.149 57.8178ZM108.149 56.1354C108.958 56.1354 109.666 55.9148 110.273 55.4736C110.898 55.0323 111.376 54.4164 111.707 53.6258C112.056 52.8168 112.231 51.8791 112.231 50.8127C112.231 49.7647 112.056 48.8362 111.707 48.0272C111.376 47.2183 110.898 46.5931 110.273 46.1519C109.666 45.6922 108.958 45.4624 108.149 45.4624C107.359 45.4624 106.651 45.6922 106.026 46.1519C105.419 46.5931 104.941 47.2183 104.592 48.0272C104.261 48.8362 104.095 49.7647 104.095 50.8127C104.095 51.8791 104.261 52.8168 104.592 53.6258C104.941 54.4164 105.419 55.0323 106.026 55.4736C106.651 55.9148 107.359 56.1354 108.149 56.1354ZM117.637 63.2232V44.111H119.292L119.458 45.7106H119.54C120.147 45.1774 120.818 44.727 121.554 44.3592C122.307 43.9731 123.08 43.7801 123.87 43.7801C125.029 43.7801 126.003 44.0651 126.794 44.635C127.584 45.1866 128.173 45.9772 128.559 47.0068C128.963 48.018 129.165 49.2131 129.165 50.5921C129.165 52.1181 128.89 53.4235 128.338 54.5083C127.805 55.5747 127.097 56.3929 126.215 56.9628C125.332 57.5328 124.385 57.8178 123.374 57.8178C122.767 57.8178 122.142 57.6799 121.499 57.4041C120.855 57.1283 120.211 56.7422 119.568 56.2458L119.623 58.6176V63.2232H117.637ZM123.043 56.1079C123.834 56.1079 124.532 55.8872 125.139 55.446C125.746 55.0047 126.224 54.3704 126.573 53.543C126.922 52.7157 127.097 51.7412 127.097 50.6197C127.097 49.6084 126.968 48.7167 126.711 47.9445C126.472 47.1723 126.077 46.5747 125.525 46.1519C124.992 45.7106 124.284 45.49 123.401 45.49C122.813 45.49 122.206 45.6554 121.581 45.9864C120.975 46.299 120.322 46.777 119.623 47.4205V54.6462C120.285 55.1794 120.91 55.5563 121.499 55.7769C122.087 55.9976 122.602 56.1079 123.043 56.1079Z" fill="black"/>
</svg>
