<svg width="76" height="39" viewBox="0 0 76 39" fill="none" xmlns="http://www.w3.org/2000/svg">
<path d="M16.7548 8.808V17H13.2188V8.808H9.60281V5.992H20.3548V8.808H16.7548ZM21.9497 17V5.992H25.4857V17H21.9497ZM37.2884 17V13.032C37.2884 12.5413 37.3044 12.04 37.3364 11.528C37.3791 11.0053 37.4218 10.568 37.4644 10.216C37.5071 9.864 37.5338 9.64 37.5444 9.544H37.4804L35.4484 17H32.6804L30.6324 9.56H30.5684C30.5791 9.656 30.6058 9.88 30.6484 10.232C30.7018 10.5733 30.7498 11.0053 30.7924 11.528C30.8351 12.04 30.8564 12.5413 30.8564 13.032V17H27.6084V5.992H32.6004L34.2644 12.344H34.3284L35.9764 5.992H40.7924V17H37.2884ZM50.0938 5.992C50.6485 5.992 51.1551 6.10933 51.6138 6.344C52.0831 6.568 52.4511 6.888 52.7178 7.304C52.9951 7.72 53.1338 8.184 53.1338 8.696C53.1338 10.0507 52.5205 10.904 51.2938 11.256V11.32C52.6911 11.64 53.3898 12.5573 53.3898 14.072C53.3898 14.648 53.2458 15.16 52.9578 15.608C52.6805 16.0453 52.2965 16.3867 51.8058 16.632C51.3151 16.8773 50.7765 17 50.1898 17H42.7658V5.992H50.0938ZM46.3018 10.28H48.7338C48.9685 10.28 49.1605 10.2 49.3098 10.04C49.4698 9.86933 49.5498 9.66133 49.5498 9.416V9.256C49.5498 9.02133 49.4698 8.824 49.3098 8.664C49.1498 8.49333 48.9578 8.408 48.7338 8.408H46.3018V10.28ZM46.3018 14.44H48.9898C49.2245 14.44 49.4165 14.36 49.5658 14.2C49.7258 14.0293 49.8058 13.8213 49.8058 13.576V13.416C49.8058 13.1707 49.7258 12.968 49.5658 12.808C49.4165 12.6373 49.2245 12.552 48.9898 12.552H46.3018V14.44ZM65.5811 12.568C65.5811 14.072 65.1064 15.2187 64.1571 16.008C63.2077 16.7973 61.8584 17.192 60.1091 17.192C58.3597 17.192 57.0051 16.7973 56.0451 16.008C55.0957 15.2187 54.6211 14.072 54.6211 12.568V5.992H58.1571V12.52C58.1571 13.1387 58.3224 13.6347 58.6531 14.008C58.9837 14.3707 59.4637 14.552 60.0931 14.552C60.7224 14.552 61.2024 14.3653 61.5331 13.992C61.8744 13.6187 62.0451 13.128 62.0451 12.52V5.992H65.5811V12.568Z" fill="black"/>
<path d="M5.66019 33.192C4.78552 33.192 4.00685 32.9787 3.32419 32.552C2.64152 32.1147 2.10285 31.4907 1.70819 30.68C1.31352 29.8587 1.11619 28.8827 1.11619 27.752C1.11619 26.8987 1.22819 26.1413 1.45219 25.48C1.68685 24.808 2.01219 24.232 2.42819 23.752C2.85485 23.272 3.34552 22.9093 3.90019 22.664C4.46552 22.4187 5.07885 22.296 5.74019 22.296C6.38019 22.296 6.94019 22.4293 7.42019 22.696C7.91085 22.952 8.30019 23.2453 8.58819 23.576L7.93219 24.36C7.65485 24.0507 7.33485 23.8053 6.97219 23.624C6.62019 23.432 6.21485 23.336 5.75619 23.336C5.07352 23.336 4.47619 23.5173 3.96419 23.88C3.45219 24.232 3.05219 24.7387 2.76419 25.4C2.48685 26.0507 2.34819 26.824 2.34819 27.72C2.34819 28.6267 2.48152 29.4107 2.74819 30.072C3.02552 30.7333 3.41485 31.2453 3.91619 31.608C4.42819 31.9707 5.02552 32.152 5.70819 32.152C6.23085 32.152 6.68952 32.0453 7.08419 31.832C7.48952 31.6187 7.86285 31.32 8.20419 30.936L8.86019 31.672C8.45485 32.152 7.99085 32.5253 7.46819 32.792C6.94552 33.0587 6.34285 33.192 5.66019 33.192ZM11.8416 33.192C11.5536 33.192 11.3136 33.128 11.1216 33C10.9296 32.8827 10.7909 32.7067 10.7056 32.472C10.6202 32.2267 10.5776 31.928 10.5776 31.576V21.576H11.7296V31.672C11.7296 31.864 11.7669 32.0027 11.8416 32.088C11.9162 32.1733 12.0016 32.216 12.0976 32.216C12.1296 32.216 12.1669 32.216 12.2096 32.216C12.2522 32.2053 12.3109 32.1947 12.3856 32.184L12.5456 33.08C12.4602 33.1013 12.3589 33.1227 12.2416 33.144C12.1349 33.176 12.0016 33.192 11.8416 33.192ZM17.3616 33.192C16.7322 33.192 16.1456 33.032 15.6016 32.712C15.0576 32.392 14.6202 31.9333 14.2896 31.336C13.9589 30.728 13.7936 29.992 13.7936 29.128C13.7936 28.264 13.9589 27.528 14.2896 26.92C14.6202 26.312 15.0576 25.848 15.6016 25.528C16.1456 25.208 16.7322 25.048 17.3616 25.048C17.9909 25.048 18.5722 25.208 19.1056 25.528C19.6496 25.848 20.0869 26.312 20.4176 26.92C20.7589 27.528 20.9296 28.264 20.9296 29.128C20.9296 29.992 20.7589 30.728 20.4176 31.336C20.0869 31.9333 19.6496 32.392 19.1056 32.712C18.5722 33.032 17.9909 33.192 17.3616 33.192ZM17.3616 32.216C17.8309 32.216 18.2416 32.088 18.5936 31.832C18.9562 31.576 19.2336 31.2187 19.4256 30.76C19.6282 30.2907 19.7296 29.7467 19.7296 29.128C19.7296 28.52 19.6282 27.9813 19.4256 27.512C19.2336 27.0427 18.9562 26.68 18.5936 26.424C18.2416 26.1573 17.8309 26.024 17.3616 26.024C16.9029 26.024 16.4922 26.1573 16.1296 26.424C15.7776 26.68 15.5002 27.0427 15.2976 27.512C15.1056 27.9813 15.0096 28.52 15.0096 29.128C15.0096 29.7467 15.1056 30.2907 15.2976 30.76C15.5002 31.2187 15.7776 31.576 16.1296 31.832C16.4922 32.088 16.9029 32.216 17.3616 32.216ZM25.1062 33.192C24.3062 33.192 23.7142 32.936 23.3302 32.424C22.9462 31.912 22.7542 31.16 22.7542 30.168V25.24H23.9062V30.024C23.9062 30.7707 24.0289 31.32 24.2742 31.672C24.5195 32.0133 24.9142 32.184 25.4582 32.184C25.8635 32.184 26.2315 32.0773 26.5622 31.864C26.8929 31.64 27.2502 31.288 27.6342 30.808V25.24H28.8022V33H27.8262L27.7302 31.768H27.6822C27.3195 32.1947 26.9355 32.5413 26.5302 32.808C26.1249 33.064 25.6502 33.192 25.1062 33.192ZM33.9388 33.192C32.9681 33.192 32.1948 32.84 31.6188 32.136C31.0428 31.4213 30.7548 30.4187 30.7548 29.128C30.7548 28.296 30.9095 27.576 31.2188 26.968C31.5388 26.36 31.9548 25.8907 32.4668 25.56C32.9788 25.2187 33.5335 25.048 34.1308 25.048C34.5895 25.048 34.9841 25.128 35.3148 25.288C35.6455 25.448 35.9868 25.672 36.3388 25.96L36.2908 24.616V21.576H37.4428V33H36.4828L36.3868 32.056H36.3388C36.0401 32.3653 35.6828 32.632 35.2668 32.856C34.8615 33.08 34.4188 33.192 33.9388 33.192ZM34.1948 32.2C34.5681 32.2 34.9255 32.1093 35.2668 31.928C35.6081 31.736 35.9495 31.4587 36.2908 31.096V26.888C35.9388 26.5787 35.6028 26.36 35.2828 26.232C34.9628 26.104 34.6375 26.04 34.3068 26.04C33.8695 26.04 33.4695 26.1733 33.1068 26.44C32.7548 26.696 32.4721 27.0587 32.2588 27.528C32.0561 27.9867 31.9548 28.52 31.9548 29.128C31.9548 30.0773 32.1468 30.8293 32.5308 31.384C32.9255 31.928 33.4801 32.2 34.1948 32.2ZM45.9861 33.192C45.2501 33.192 44.5727 33.048 43.9541 32.76C43.3354 32.472 42.7967 32.0933 42.3381 31.624L43.0581 30.808C43.4421 31.2133 43.8847 31.5387 44.3861 31.784C44.8981 32.0293 45.4367 32.152 46.0021 32.152C46.7274 32.152 47.2927 31.9867 47.6981 31.656C48.1034 31.3147 48.3061 30.872 48.3061 30.328C48.3061 29.9547 48.2261 29.656 48.0661 29.432C47.9061 29.1973 47.6927 29.0053 47.4261 28.856C47.1594 28.696 46.8554 28.5413 46.5141 28.392L44.9941 27.72C44.6741 27.5813 44.3487 27.4 44.0181 27.176C43.6874 26.952 43.4101 26.6693 43.1861 26.328C42.9727 25.9867 42.8661 25.5547 42.8661 25.032C42.8661 24.5093 43.0047 24.0453 43.2821 23.64C43.5594 23.224 43.9434 22.8987 44.4341 22.664C44.9247 22.4187 45.4794 22.296 46.0981 22.296C46.7274 22.296 47.3034 22.4187 47.8261 22.664C48.3594 22.9093 48.8021 23.2187 49.1541 23.592L48.5141 24.36C48.2047 24.04 47.8474 23.7893 47.4421 23.608C47.0474 23.4267 46.5994 23.336 46.0981 23.336C45.4901 23.336 44.9941 23.4853 44.6101 23.784C44.2367 24.072 44.0501 24.4667 44.0501 24.968C44.0501 25.32 44.1407 25.608 44.3221 25.832C44.5034 26.056 44.7274 26.2427 44.9941 26.392C45.2714 26.5307 45.5434 26.6587 45.8101 26.776L47.3301 27.448C47.7461 27.6187 48.1141 27.8213 48.4341 28.056C48.7541 28.2907 49.0101 28.584 49.2021 28.936C49.4047 29.288 49.5061 29.7253 49.5061 30.248C49.5061 30.792 49.3621 31.288 49.0741 31.736C48.7967 32.184 48.3914 32.5413 47.8581 32.808C47.3354 33.064 46.7114 33.192 45.9861 33.192ZM51.3184 33V21.576H52.4704V24.744L52.4384 26.376C52.8118 26.0027 53.2064 25.688 53.6224 25.432C54.0384 25.176 54.5078 25.048 55.0304 25.048C55.8518 25.048 56.4491 25.304 56.8224 25.816C57.2064 26.328 57.3984 27.08 57.3984 28.072V33H56.2304V28.216C56.2304 27.4693 56.1078 26.9253 55.8624 26.584C55.6278 26.2427 55.2384 26.072 54.6944 26.072C54.2891 26.072 53.9211 26.1787 53.5904 26.392C53.2598 26.5947 52.8864 26.904 52.4704 27.32V33H51.3184ZM62.7431 33.192C62.1137 33.192 61.5271 33.032 60.9831 32.712C60.4391 32.392 60.0017 31.9333 59.6711 31.336C59.3404 30.728 59.1751 29.992 59.1751 29.128C59.1751 28.264 59.3404 27.528 59.6711 26.92C60.0017 26.312 60.4391 25.848 60.9831 25.528C61.5271 25.208 62.1137 25.048 62.7431 25.048C63.3724 25.048 63.9537 25.208 64.4871 25.528C65.0311 25.848 65.4684 26.312 65.7991 26.92C66.1404 27.528 66.3111 28.264 66.3111 29.128C66.3111 29.992 66.1404 30.728 65.7991 31.336C65.4684 31.9333 65.0311 32.392 64.4871 32.712C63.9537 33.032 63.3724 33.192 62.7431 33.192ZM62.7431 32.216C63.2124 32.216 63.6231 32.088 63.9751 31.832C64.3377 31.576 64.6151 31.2187 64.8071 30.76C65.0097 30.2907 65.1111 29.7467 65.1111 29.128C65.1111 28.52 65.0097 27.9813 64.8071 27.512C64.6151 27.0427 64.3377 26.68 63.9751 26.424C63.6231 26.1573 63.2124 26.024 62.7431 26.024C62.2844 26.024 61.8737 26.1573 61.5111 26.424C61.1591 26.68 60.8817 27.0427 60.6791 27.512C60.4871 27.9813 60.3911 28.52 60.3911 29.128C60.3911 29.7467 60.4871 30.2907 60.6791 30.76C60.8817 31.2187 61.1591 31.576 61.5111 31.832C61.8737 32.088 62.2844 32.216 62.7431 32.216ZM68.2477 36.328V25.24H69.2077L69.3037 26.168H69.3517C69.7037 25.8587 70.093 25.5973 70.5197 25.384C70.957 25.16 71.405 25.048 71.8637 25.048C72.5357 25.048 73.101 25.2133 73.5597 25.544C74.0184 25.864 74.3597 26.3227 74.5837 26.92C74.8184 27.5067 74.9357 28.2 74.9357 29C74.9357 29.8853 74.7757 30.6427 74.4557 31.272C74.1464 31.8907 73.7357 32.3653 73.2237 32.696C72.7117 33.0267 72.1624 33.192 71.5757 33.192C71.2237 33.192 70.861 33.112 70.4877 32.952C70.1144 32.792 69.741 32.568 69.3677 32.28L69.3997 33.656V36.328H68.2477ZM71.3837 32.2C71.8424 32.2 72.2477 32.072 72.5997 31.816C72.9517 31.56 73.229 31.192 73.4317 30.712C73.6344 30.232 73.7357 29.6667 73.7357 29.016C73.7357 28.4293 73.661 27.912 73.5117 27.464C73.373 27.016 73.1437 26.6693 72.8237 26.424C72.5144 26.168 72.1037 26.04 71.5917 26.04C71.2504 26.04 70.8984 26.136 70.5357 26.328C70.1837 26.5093 69.805 26.7867 69.3997 27.16V31.352C69.7837 31.6613 70.1464 31.88 70.4877 32.008C70.829 32.136 71.1277 32.2 71.3837 32.2Z" fill="black"/>
</svg>
