<svg width="76" height="40" viewBox="0 0 76 40" fill="none" xmlns="http://www.w3.org/2000/svg">
<path d="M16.7548 9.308V17.5H13.2188V9.308H9.60281V6.492H20.3548V9.308H16.7548ZM21.9497 17.5V6.492H25.4857V17.5H21.9497ZM37.2884 17.5V13.532C37.2884 13.0413 37.3044 12.54 37.3364 12.028C37.3791 11.5053 37.4218 11.068 37.4644 10.716C37.5071 10.364 37.5338 10.14 37.5444 10.044H37.4804L35.4484 17.5H32.6804L30.6324 10.06H30.5684C30.5791 10.156 30.6058 10.38 30.6484 10.732C30.7018 11.0733 30.7498 11.5053 30.7924 12.028C30.8351 12.54 30.8564 13.0413 30.8564 13.532V17.5H27.6084V6.492H32.6004L34.2644 12.844H34.3284L35.9764 6.492H40.7924V17.5H37.2884ZM50.0938 6.492C50.6485 6.492 51.1551 6.60933 51.6138 6.844C52.0831 7.068 52.4511 7.388 52.7178 7.804C52.9951 8.22 53.1338 8.684 53.1338 9.196C53.1338 10.5507 52.5205 11.404 51.2938 11.756V11.82C52.6911 12.14 53.3898 13.0573 53.3898 14.572C53.3898 15.148 53.2458 15.66 52.9578 16.108C52.6805 16.5453 52.2965 16.8867 51.8058 17.132C51.3151 17.3773 50.7765 17.5 50.1898 17.5H42.7658V6.492H50.0938ZM46.3018 10.78H48.7338C48.9685 10.78 49.1605 10.7 49.3098 10.54C49.4698 10.3693 49.5498 10.1613 49.5498 9.916V9.756C49.5498 9.52133 49.4698 9.324 49.3098 9.164C49.1498 8.99333 48.9578 8.908 48.7338 8.908H46.3018V10.78ZM46.3018 14.94H48.9898C49.2245 14.94 49.4165 14.86 49.5658 14.7C49.7258 14.5293 49.8058 14.3213 49.8058 14.076V13.916C49.8058 13.6707 49.7258 13.468 49.5658 13.308C49.4165 13.1373 49.2245 13.052 48.9898 13.052H46.3018V14.94ZM65.5811 13.068C65.5811 14.572 65.1064 15.7187 64.1571 16.508C63.2077 17.2973 61.8584 17.692 60.1091 17.692C58.3597 17.692 57.0051 17.2973 56.0451 16.508C55.0957 15.7187 54.6211 14.572 54.6211 13.068V6.492H58.1571V13.02C58.1571 13.6387 58.3224 14.1347 58.6531 14.508C58.9837 14.8707 59.4637 15.052 60.0931 15.052C60.7224 15.052 61.2024 14.8653 61.5331 14.492C61.8744 14.1187 62.0451 13.628 62.0451 13.02V6.492H65.5811V13.068Z" fill="white"/>
<path d="M5.66019 33.692C4.78552 33.692 4.00685 33.4787 3.32419 33.052C2.64152 32.6147 2.10285 31.9907 1.70819 31.18C1.31352 30.3587 1.11619 29.3827 1.11619 28.252C1.11619 27.3987 1.22819 26.6413 1.45219 25.98C1.68685 25.308 2.01219 24.732 2.42819 24.252C2.85485 23.772 3.34552 23.4093 3.90019 23.164C4.46552 22.9187 5.07885 22.796 5.74019 22.796C6.38019 22.796 6.94019 22.9293 7.42019 23.196C7.91085 23.452 8.30019 23.7453 8.58819 24.076L7.93219 24.86C7.65485 24.5507 7.33485 24.3053 6.97219 24.124C6.62019 23.932 6.21485 23.836 5.75619 23.836C5.07352 23.836 4.47619 24.0173 3.96419 24.38C3.45219 24.732 3.05219 25.2387 2.76419 25.9C2.48685 26.5507 2.34819 27.324 2.34819 28.22C2.34819 29.1267 2.48152 29.9107 2.74819 30.572C3.02552 31.2333 3.41485 31.7453 3.91619 32.108C4.42819 32.4707 5.02552 32.652 5.70819 32.652C6.23085 32.652 6.68952 32.5453 7.08419 32.332C7.48952 32.1187 7.86285 31.82 8.20419 31.436L8.86019 32.172C8.45485 32.652 7.99085 33.0253 7.46819 33.292C6.94552 33.5587 6.34285 33.692 5.66019 33.692ZM11.8416 33.692C11.5536 33.692 11.3136 33.628 11.1216 33.5C10.9296 33.3827 10.7909 33.2067 10.7056 32.972C10.6202 32.7267 10.5776 32.428 10.5776 32.076V22.076H11.7296V32.172C11.7296 32.364 11.7669 32.5027 11.8416 32.588C11.9162 32.6733 12.0016 32.716 12.0976 32.716C12.1296 32.716 12.1669 32.716 12.2096 32.716C12.2522 32.7053 12.3109 32.6947 12.3856 32.684L12.5456 33.58C12.4602 33.6013 12.3589 33.6227 12.2416 33.644C12.1349 33.676 12.0016 33.692 11.8416 33.692ZM17.3616 33.692C16.7322 33.692 16.1456 33.532 15.6016 33.212C15.0576 32.892 14.6202 32.4333 14.2896 31.836C13.9589 31.228 13.7936 30.492 13.7936 29.628C13.7936 28.764 13.9589 28.028 14.2896 27.42C14.6202 26.812 15.0576 26.348 15.6016 26.028C16.1456 25.708 16.7322 25.548 17.3616 25.548C17.9909 25.548 18.5722 25.708 19.1056 26.028C19.6496 26.348 20.0869 26.812 20.4176 27.42C20.7589 28.028 20.9296 28.764 20.9296 29.628C20.9296 30.492 20.7589 31.228 20.4176 31.836C20.0869 32.4333 19.6496 32.892 19.1056 33.212C18.5722 33.532 17.9909 33.692 17.3616 33.692ZM17.3616 32.716C17.8309 32.716 18.2416 32.588 18.5936 32.332C18.9562 32.076 19.2336 31.7187 19.4256 31.26C19.6282 30.7907 19.7296 30.2467 19.7296 29.628C19.7296 29.02 19.6282 28.4813 19.4256 28.012C19.2336 27.5427 18.9562 27.18 18.5936 26.924C18.2416 26.6573 17.8309 26.524 17.3616 26.524C16.9029 26.524 16.4922 26.6573 16.1296 26.924C15.7776 27.18 15.5002 27.5427 15.2976 28.012C15.1056 28.4813 15.0096 29.02 15.0096 29.628C15.0096 30.2467 15.1056 30.7907 15.2976 31.26C15.5002 31.7187 15.7776 32.076 16.1296 32.332C16.4922 32.588 16.9029 32.716 17.3616 32.716ZM25.1062 33.692C24.3062 33.692 23.7142 33.436 23.3302 32.924C22.9462 32.412 22.7542 31.66 22.7542 30.668V25.74H23.9062V30.524C23.9062 31.2707 24.0289 31.82 24.2742 32.172C24.5195 32.5133 24.9142 32.684 25.4582 32.684C25.8635 32.684 26.2315 32.5773 26.5622 32.364C26.8929 32.14 27.2502 31.788 27.6342 31.308V25.74H28.8022V33.5H27.8262L27.7302 32.268H27.6822C27.3195 32.6947 26.9355 33.0413 26.5302 33.308C26.1249 33.564 25.6502 33.692 25.1062 33.692ZM33.9388 33.692C32.9681 33.692 32.1948 33.34 31.6188 32.636C31.0428 31.9213 30.7548 30.9187 30.7548 29.628C30.7548 28.796 30.9095 28.076 31.2188 27.468C31.5388 26.86 31.9548 26.3907 32.4668 26.06C32.9788 25.7187 33.5335 25.548 34.1308 25.548C34.5895 25.548 34.9841 25.628 35.3148 25.788C35.6455 25.948 35.9868 26.172 36.3388 26.46L36.2908 25.116V22.076H37.4428V33.5H36.4828L36.3868 32.556H36.3388C36.0401 32.8653 35.6828 33.132 35.2668 33.356C34.8615 33.58 34.4188 33.692 33.9388 33.692ZM34.1948 32.7C34.5681 32.7 34.9255 32.6093 35.2668 32.428C35.6081 32.236 35.9495 31.9587 36.2908 31.596V27.388C35.9388 27.0787 35.6028 26.86 35.2828 26.732C34.9628 26.604 34.6375 26.54 34.3068 26.54C33.8695 26.54 33.4695 26.6733 33.1068 26.94C32.7548 27.196 32.4721 27.5587 32.2588 28.028C32.0561 28.4867 31.9548 29.02 31.9548 29.628C31.9548 30.5773 32.1468 31.3293 32.5308 31.884C32.9255 32.428 33.4801 32.7 34.1948 32.7ZM45.9861 33.692C45.2501 33.692 44.5727 33.548 43.9541 33.26C43.3354 32.972 42.7967 32.5933 42.3381 32.124L43.0581 31.308C43.4421 31.7133 43.8847 32.0387 44.3861 32.284C44.8981 32.5293 45.4367 32.652 46.0021 32.652C46.7274 32.652 47.2927 32.4867 47.6981 32.156C48.1034 31.8147 48.3061 31.372 48.3061 30.828C48.3061 30.4547 48.2261 30.156 48.0661 29.932C47.9061 29.6973 47.6927 29.5053 47.4261 29.356C47.1594 29.196 46.8554 29.0413 46.5141 28.892L44.9941 28.22C44.6741 28.0813 44.3487 27.9 44.0181 27.676C43.6874 27.452 43.4101 27.1693 43.1861 26.828C42.9727 26.4867 42.8661 26.0547 42.8661 25.532C42.8661 25.0093 43.0047 24.5453 43.2821 24.14C43.5594 23.724 43.9434 23.3987 44.4341 23.164C44.9247 22.9187 45.4794 22.796 46.0981 22.796C46.7274 22.796 47.3034 22.9187 47.8261 23.164C48.3594 23.4093 48.8021 23.7187 49.1541 24.092L48.5141 24.86C48.2047 24.54 47.8474 24.2893 47.4421 24.108C47.0474 23.9267 46.5994 23.836 46.0981 23.836C45.4901 23.836 44.9941 23.9853 44.6101 24.284C44.2367 24.572 44.0501 24.9667 44.0501 25.468C44.0501 25.82 44.1407 26.108 44.3221 26.332C44.5034 26.556 44.7274 26.7427 44.9941 26.892C45.2714 27.0307 45.5434 27.1587 45.8101 27.276L47.3301 27.948C47.7461 28.1187 48.1141 28.3213 48.4341 28.556C48.7541 28.7907 49.0101 29.084 49.2021 29.436C49.4047 29.788 49.5061 30.2253 49.5061 30.748C49.5061 31.292 49.3621 31.788 49.0741 32.236C48.7967 32.684 48.3914 33.0413 47.8581 33.308C47.3354 33.564 46.7114 33.692 45.9861 33.692ZM51.3184 33.5V22.076H52.4704V25.244L52.4384 26.876C52.8118 26.5027 53.2064 26.188 53.6224 25.932C54.0384 25.676 54.5078 25.548 55.0304 25.548C55.8518 25.548 56.4491 25.804 56.8224 26.316C57.2064 26.828 57.3984 27.58 57.3984 28.572V33.5H56.2304V28.716C56.2304 27.9693 56.1078 27.4253 55.8624 27.084C55.6278 26.7427 55.2384 26.572 54.6944 26.572C54.2891 26.572 53.9211 26.6787 53.5904 26.892C53.2598 27.0947 52.8864 27.404 52.4704 27.82V33.5H51.3184ZM62.7431 33.692C62.1137 33.692 61.5271 33.532 60.9831 33.212C60.4391 32.892 60.0017 32.4333 59.6711 31.836C59.3404 31.228 59.1751 30.492 59.1751 29.628C59.1751 28.764 59.3404 28.028 59.6711 27.42C60.0017 26.812 60.4391 26.348 60.9831 26.028C61.5271 25.708 62.1137 25.548 62.7431 25.548C63.3724 25.548 63.9537 25.708 64.4871 26.028C65.0311 26.348 65.4684 26.812 65.7991 27.42C66.1404 28.028 66.3111 28.764 66.3111 29.628C66.3111 30.492 66.1404 31.228 65.7991 31.836C65.4684 32.4333 65.0311 32.892 64.4871 33.212C63.9537 33.532 63.3724 33.692 62.7431 33.692ZM62.7431 32.716C63.2124 32.716 63.6231 32.588 63.9751 32.332C64.3377 32.076 64.6151 31.7187 64.8071 31.26C65.0097 30.7907 65.1111 30.2467 65.1111 29.628C65.1111 29.02 65.0097 28.4813 64.8071 28.012C64.6151 27.5427 64.3377 27.18 63.9751 26.924C63.6231 26.6573 63.2124 26.524 62.7431 26.524C62.2844 26.524 61.8737 26.6573 61.5111 26.924C61.1591 27.18 60.8817 27.5427 60.6791 28.012C60.4871 28.4813 60.3911 29.02 60.3911 29.628C60.3911 30.2467 60.4871 30.7907 60.6791 31.26C60.8817 31.7187 61.1591 32.076 61.5111 32.332C61.8737 32.588 62.2844 32.716 62.7431 32.716ZM68.2477 36.828V25.74H69.2077L69.3037 26.668H69.3517C69.7037 26.3587 70.093 26.0973 70.5197 25.884C70.957 25.66 71.405 25.548 71.8637 25.548C72.5357 25.548 73.101 25.7133 73.5597 26.044C74.0184 26.364 74.3597 26.8227 74.5837 27.42C74.8184 28.0067 74.9357 28.7 74.9357 29.5C74.9357 30.3853 74.7757 31.1427 74.4557 31.772C74.1464 32.3907 73.7357 32.8653 73.2237 33.196C72.7117 33.5267 72.1624 33.692 71.5757 33.692C71.2237 33.692 70.861 33.612 70.4877 33.452C70.1144 33.292 69.741 33.068 69.3677 32.78L69.3997 34.156V36.828H68.2477ZM71.3837 32.7C71.8424 32.7 72.2477 32.572 72.5997 32.316C72.9517 32.06 73.229 31.692 73.4317 31.212C73.6344 30.732 73.7357 30.1667 73.7357 29.516C73.7357 28.9293 73.661 28.412 73.5117 27.964C73.373 27.516 73.1437 27.1693 72.8237 26.924C72.5144 26.668 72.1037 26.54 71.5917 26.54C71.2504 26.54 70.8984 26.636 70.5357 26.828C70.1837 27.0093 69.805 27.2867 69.3997 27.66V31.852C69.7837 32.1613 70.1464 32.38 70.4877 32.508C70.829 32.636 71.1277 32.7 71.3837 32.7Z" fill="white"/>
</svg>
